<svg width="120" height="121" viewBox="0 0 120 121" fill="none" xmlns="http://www.w3.org/2000/svg">
<path d="M106 24.0286H56.0001C48.2717 24.0374 42.0089 30.3002 42.0001 38.0286V104.029H20.2001C19.0157 104.021 17.8892 104.54 17.1265 105.446C16.3638 106.352 16.044 107.551 16.2541 108.717C17.5487 115.285 23.3054 120.022 30.0001 120.029H80.0001C86.9513 120.015 92.8419 114.908 93.8401 108.029H116C118.209 108.029 120 106.238 120 104.029V38.0286C119.991 30.3002 113.728 24.0374 106 24.0286ZM68.2281 116.029L30.0001 116.029C25.2454 116.035 21.1456 112.688 20.2001 108.029C45.5281 108.029 24.5761 108.045 64.1361 108.013C64.593 111.058 66.0294 113.872 68.2281 116.029ZM80.0001 116.029H78.0001C73.032 116.011 68.8233 112.364 68.1001 107.449C67.8131 105.49 66.1372 104.036 64.1581 104.029H46.0001V38.0286C46.0067 32.5085 50.48 28.0352 56.0001 28.0286H94.2221C91.522 30.655 89.9992 34.2618 90.0001 38.0286V106.029C89.9935 111.549 85.5202 116.022 80.0001 116.029ZM116 104.029H94.0001V38.0286C94.0067 32.5085 98.48 28.0352 104 28.0286H106C111.52 28.0352 115.993 32.5085 116 38.0286V104.029Z" fill="#0F1636"/>
<path d="M52 46.0286H58C59.1046 46.0286 60 45.1331 60 44.0286C60 42.924 59.1046 42.0286 58 42.0286H52C50.8954 42.0286 50 42.924 50 44.0286C50 45.1331 50.8954 46.0286 52 46.0286Z" fill="#0F1636"/>
<path d="M83.9999 42.0286H65.9999C64.8953 42.0286 63.9999 42.924 63.9999 44.0286C63.9999 45.1331 64.8953 46.0286 65.9999 46.0286H83.9999C85.1044 46.0286 85.9999 45.1331 85.9999 44.0286C85.9999 42.924 85.1044 42.0286 83.9999 42.0286Z" fill="#0F1636"/>
<path d="M84 50.0286H78C76.8954 50.0286 76 50.9241 76 52.0286C76 53.1332 76.8954 54.0286 78 54.0286H84C85.1046 54.0286 86 53.1332 86 52.0286C86 50.9241 85.1046 50.0286 84 50.0286Z" fill="#0F1636"/>
<path d="M52 54.0286H70C71.1046 54.0286 72 53.1332 72 52.0286C72 50.9241 71.1046 50.0286 70 50.0286H52C50.8954 50.0286 50 50.9241 50 52.0286C50 53.1332 50.8954 54.0286 52 54.0286Z" fill="#0F1636"/>
<path d="M52 62.0286H58C59.1046 62.0286 60 61.1331 60 60.0286C60 58.924 59.1046 58.0286 58 58.0286H52C50.8954 58.0286 50 58.924 50 60.0286C50 61.1331 50.8954 62.0286 52 62.0286Z" fill="#0F1636"/>
<path d="M83.9999 58.0286H65.9999C64.8953 58.0286 63.9999 58.924 63.9999 60.0286C63.9999 61.1331 64.8953 62.0286 65.9999 62.0286H83.9999C85.1044 62.0286 85.9999 61.1331 85.9999 60.0286C85.9999 58.924 85.1044 58.0286 83.9999 58.0286Z" fill="#0F1636"/>
<path d="M52 78.0286H58C59.1046 78.0286 60 77.1331 60 76.0286C60 74.924 59.1046 74.0286 58 74.0286H52C50.8954 74.0286 50 74.924 50 76.0286C50 77.1331 50.8954 78.0286 52 78.0286Z" fill="#0F1636"/>
<path d="M83.9999 74.0286H65.9999C64.8953 74.0286 63.9999 74.924 63.9999 76.0286C63.9999 77.1331 64.8953 78.0286 65.9999 78.0286H83.9999C85.1044 78.0286 85.9999 77.1331 85.9999 76.0286C85.9999 74.924 85.1044 74.0286 83.9999 74.0286Z" fill="#0F1636"/>
<path d="M84 82.0286H78C76.8954 82.0286 76 82.924 76 84.0286C76 85.1331 76.8954 86.0286 78 86.0286H84C85.1046 86.0286 86 85.1331 86 84.0286C86 82.924 85.1046 82.0286 84 82.0286Z" fill="#0F1636"/>
<path d="M52 86.0286H70C71.1046 86.0286 72 85.1331 72 84.0286C72 82.924 71.1046 82.0286 70 82.0286H52C50.8954 82.0286 50 82.924 50 84.0286C50 85.1331 50.8954 86.0286 52 86.0286Z" fill="#0F1636"/>
<path d="M58 90.0286H52C50.8954 90.0286 50 90.924 50 92.0286C50 93.1331 50.8954 94.0286 52 94.0286H58C59.1046 94.0286 60 93.1331 60 92.0286C60 90.924 59.1046 90.0286 58 90.0286Z" fill="#0F1636"/>
<path d="M83.9999 90.0286H65.9999C64.8953 90.0286 63.9999 90.924 63.9999 92.0286C63.9999 93.1331 64.8953 94.0286 65.9999 94.0286H83.9999C85.1044 94.0286 85.9999 93.1331 85.9999 92.0286C85.9999 90.924 85.1044 90.0286 83.9999 90.0286Z" fill="#0F1636"/>
<path d="M36 94.0291V78.0291C36 74.7153 33.3137 72.0291 30 72.0291V60.029C30 57.8199 28.2091 56.029 26 56.029H20.248C20.577 53.3155 21.055 50.6221 21.68 47.961C27.712 47.761 33.94 41.499 40.648 28.861L40.666 28.825C46.964 16.389 53.164 6.81104 49.914 2.14104C46.226 -3.56496 30.578 2.48104 20.238 16.151C12.626 26.189 11.512 36.551 13.786 42.387C14.4798 44.4131 15.8932 46.114 17.758 47.167C17.0773 50.0893 16.5644 53.0482 16.222 56.029H10C7.79086 56.029 6 57.8199 6 60.029V72.0291C2.68629 72.0291 0 74.7153 0 78.0291V94.0291C0 97.3428 2.68629 100.029 6 100.029H30C33.3137 100.029 36 97.3428 36 94.0291V94.0291ZM40.148 21.139C36.896 27.331 30 41.839 22.8 43.753C27.0515 29.5427 35.2966 16.8532 46.554 7.19504C44.8403 12.0254 42.6964 16.6921 40.148 21.139V21.139ZM17.512 40.939C15.712 36.307 16.784 27.339 23.426 18.573C30.358 9.40504 39.2 4.79904 44 4.12304C32.0159 14.3834 23.2737 27.907 18.838 43.047C18.2551 42.4412 17.8037 41.7215 17.512 40.933V40.939ZM10 68.0291H14C15.1046 68.0291 16 67.1336 16 66.0291C16 64.9245 15.1046 64.0291 14 64.0291H10V60.029H26V64.0291H22C20.8954 64.0291 20 64.9245 20 66.0291C20 67.1336 20.8954 68.0291 22 68.0291H26V72.0291H10V68.0291ZM6 76.0291H30C31.1046 76.0291 32 76.9245 32 78.0291V84.0291H4V78.0291C4 76.9245 4.89543 76.0291 6 76.0291ZM4 94.0291V88.0291H32V94.0291C32 95.1336 31.1046 96.0291 30 96.0291H6C4.89543 96.0291 4 95.1336 4 94.0291Z" fill="#0F1636"/>
</svg>
