<svg width="114" height="114" viewBox="0 0 114 114" fill="none" xmlns="http://www.w3.org/2000/svg">
<path d="M16.4938 18.7828C12.5897 18.7828 9.4248 21.9478 9.4248 25.8518V44.7024H14.1374V25.8518C14.1374 24.5505 15.1924 23.4954 16.4938 23.4954H73.0458V18.7828H16.4938Z" fill="#0F1636"/>
<path d="M16.4938 89.4729C15.1924 89.4729 14.1374 88.4178 14.1374 87.1165V63.553H9.4248V87.1165C9.4248 91.0205 12.5897 94.1855 16.4938 94.1855H40.0572V89.4729H16.4938V89.4729Z" fill="#0F1636"/>
<path d="M74.7118 95.5497L17.4858 38.3237C16.5658 37.4039 15.0742 37.4039 14.1539 38.3237L0.68989 51.788C-0.229963 52.7081 -0.229963 54.1996 0.68989 55.1199L57.9159 112.346C58.3577 112.788 58.957 113.036 59.5817 113.036C60.2067 113.036 60.8058 112.788 61.2476 112.346L74.7116 98.8817C75.6317 97.9614 75.6317 96.4698 74.7118 95.5497ZM59.5817 107.348L5.68767 53.4538L15.82 43.3215L69.7141 97.2158L59.5817 107.348Z" fill="#0F1636"/>
<path d="M103.678 89.4729H68.3333V94.1855H94.2529V105.967C94.2529 107.268 95.3079 108.324 96.6093 108.324H103.678C108.884 108.324 113.104 104.104 113.104 98.8981C113.104 93.6927 108.884 89.4729 103.678 89.4729ZM103.678 103.611H98.9657V94.1855H103.678C106.281 94.1855 108.391 96.2954 108.391 98.8981C108.391 101.501 106.281 103.611 103.678 103.611Z" fill="#0F1636"/>
<path d="M103.678 18.7828H91.8965V23.4954H103.678C106.281 23.4954 108.391 25.6053 108.391 28.208V98.8981H113.103V28.208C113.103 23.0026 108.884 18.7828 103.678 18.7828Z" fill="#0F1636"/>
<path d="M43.1047 66.5994L36.0352 73.6689L39.3674 77.0012L46.437 69.9316L43.1047 66.5994Z" fill="#0F1636"/>
<path d="M33.6797 57.1739L26.6101 64.2435L29.9424 67.5758L37.012 60.5062L33.6797 57.1739Z" fill="#0F1636"/>
<path d="M52.5252 76.0248L45.4556 83.0944L48.7878 86.4266L55.8574 79.3571L52.5252 76.0248Z" fill="#0F1636"/>
<path d="M61.9546 85.4548L54.885 92.5244L58.2173 95.8567L65.2869 88.7871L61.9546 85.4548Z" fill="#0F1636"/>
<path d="M24.2478 47.7486L17.1782 54.8182L20.5105 58.1505L27.5801 51.0809L24.2478 47.7486Z" fill="#0F1636"/>
<path d="M101.638 5.22913L98.381 1.97275C95.6257 -0.657583 91.2893 -0.657583 88.5339 1.97275L52.7036 37.8031C51.7837 38.7232 51.7837 40.2147 52.7036 41.135L62.4754 50.9068C62.9161 51.3504 63.516 51.5989 64.1412 51.5971C64.7662 51.5969 65.3653 51.3486 65.8071 50.9068L101.638 15.0763C101.639 15.0751 101.64 15.074 101.641 15.0729C104.358 12.3538 104.357 7.9465 101.638 5.22913ZM98.3081 11.7421L64.1412 45.9088L57.7013 39.4689L91.8683 5.30446C92.7581 4.45419 94.1595 4.45419 95.0493 5.30446L98.3081 8.55863C98.3084 8.55907 98.3088 8.55929 98.3092 8.55973C99.1876 9.43872 99.1871 10.8636 98.3081 11.7421Z" fill="#0F1636"/>
<path d="M63.3849 47.0069L53.215 50.4025L56.6105 40.216L52.1334 38.7245L47.2463 53.3832C47.1664 53.6235 47.1255 53.8751 47.1255 54.1283C47.1257 55.4296 48.181 56.4845 49.4823 56.484C49.7317 56.4849 49.9798 56.4467 50.2175 56.3709L64.8762 51.4838L63.3849 47.0069Z" fill="#0F1636"/>
<path d="M85.3501 8.48553L82.0178 11.8178L91.7899 21.5899L95.1221 18.2576L85.3501 8.48553Z" fill="#0F1636"/>
<path d="M84.8274 51.7715H49.4824V56.4841H84.8274V51.7715Z" fill="#0F1636"/>
<path d="M94.2526 51.7715H89.54V56.4841H94.2526V51.7715Z" fill="#0F1636"/>
<path d="M103.678 51.7715H98.9656V56.4841H103.678V51.7715Z" fill="#0F1636"/>
</svg>
