<svg width="109" height="109" viewBox="0 0 109 109" fill="none" xmlns="http://www.w3.org/2000/svg">
<path d="M66.6855 73.0165C65.5207 73.0165 64.5752 73.962 64.5752 75.1268C64.5752 76.2916 65.5207 77.2371 66.6855 77.2371C67.8503 77.2371 68.7958 76.2916 68.7958 75.1268C68.7958 73.962 67.8503 73.0165 66.6855 73.0165Z" fill="#0F1636"/>
<path d="M97.496 0H10.5515C4.73334 0 0 4.73334 0 10.5515V75.1268C0 80.9449 4.73334 85.6783 10.5515 85.6783H43.4722V95.3857H41.3619C38.5443 95.3857 35.8958 96.4837 33.9017 98.4769C31.9084 100.471 30.8104 103.12 30.8104 105.937C30.8104 107.103 31.7551 108.047 32.9207 108.047H75.1268C76.2924 108.047 77.2371 107.103 77.2371 105.937C77.2371 100.119 72.5037 95.3857 66.6856 95.3857H64.5753V85.6783H97.496C103.314 85.6783 108.047 80.9449 108.047 75.1268V10.5515C108.047 4.73334 103.314 0 97.496 0ZM10.5515 4.22061H97.496C100.987 4.22061 103.827 7.06045 103.827 10.5515V64.5753H94.1195V16.0383C94.1195 14.8727 93.1748 13.928 92.0092 13.928H75.1268C73.9612 13.928 73.0165 14.8727 73.0165 16.0383V64.5753H62.4534C62.4312 62.3924 62.3743 60.2409 62.2836 58.1537C61.9143 49.5591 61.0727 43.802 60.6349 41.2696C64.9891 38.0638 66.1778 32.1219 63.516 27.5057L56.2016 14.8372C55.8241 14.1844 55.1275 13.7821 54.3741 13.7821C53.6198 13.7821 52.9233 14.1844 52.5465 14.8372L45.2289 27.5065C42.7196 31.859 43.6091 37.4966 47.5511 40.8236C47.0944 43.3486 46.1728 49.3118 45.7721 58.1496C45.6773 60.259 45.6172 62.4122 45.5941 64.5753H35.031V32.9207C35.031 32.586 34.9519 32.281 34.8225 32.0098C34.8167 31.9991 34.8134 31.9876 34.8085 31.9769L26.3672 15.0944C26.0095 14.3797 25.2791 13.928 24.4795 13.928C23.6799 13.928 22.9495 14.3797 22.5918 15.0944L14.1506 31.9769C14.1456 31.9876 14.1423 31.9991 14.1374 32.0098C14.0055 32.2835 13.928 32.5935 13.928 32.9207V64.5753H4.22061V10.5515C4.22061 7.06045 7.06045 4.22061 10.5515 4.22061V4.22061ZM77.2371 64.5753V18.1486H89.8989V22.3692H87.7886C86.623 22.3692 85.6783 23.3139 85.6783 24.4795C85.6783 25.6451 86.623 26.5898 87.7886 26.5898H89.8989V32.9207H87.7886C86.623 32.9207 85.6783 33.8654 85.6783 35.031C85.6783 36.1966 86.623 37.1413 87.7886 37.1413H89.8989V43.4722H87.7886C86.623 43.4722 85.6783 44.4169 85.6783 45.5825C85.6783 46.7481 86.623 47.6928 87.7886 47.6928H89.8989V56.134H87.7886C86.623 56.134 85.6783 57.0787 85.6783 58.2444C85.6783 59.41 86.623 60.3547 87.7886 60.3547H89.8989V64.5753H77.2371ZM54.3741 43.3263C55.1407 43.3263 55.9041 43.2381 56.6509 43.0733C57.0425 45.5834 57.6179 50.0249 57.9583 56.134H50.1032C50.4601 50.029 51.0627 45.5182 51.479 42.9232C52.4138 43.1895 53.3874 43.3263 54.3741 43.3263ZM54.3741 39.1057C49.5509 39.1057 46.4407 33.8563 48.8848 29.616L54.3741 20.113L59.8601 29.6151C62.2951 33.8382 59.2278 39.1057 54.3741 39.1057ZM49.9095 60.3547H58.1438C58.1883 61.7412 58.2188 63.1516 58.2336 64.5753H49.8147C49.8303 63.1607 49.8625 61.7503 49.9095 60.3547ZM26.5898 64.5753V35.031H30.8104V64.5753H26.5898ZM18.1486 64.5753V35.031H22.3692V64.5753H18.1486ZM19.4527 30.8104L24.4795 20.7568L29.5063 30.8104H19.4527ZM72.6546 103.827H35.3904C35.7004 102.947 36.2065 102.141 36.8858 101.461C38.0827 100.265 39.672 99.6063 41.3619 99.6063H66.6856C69.4372 99.6063 71.7841 101.37 72.6546 103.827ZM60.3547 95.3857H47.6928V85.6783H60.3547V95.3857ZM97.496 81.4577H10.5515C7.06045 81.4577 4.22061 78.6178 4.22061 75.1268V68.7959H103.827V75.1268C103.827 78.6178 100.987 81.4577 97.496 81.4577Z" fill="#0F1636"/>
<path d="M58.2444 73.0165H45.5826C44.417 73.0165 43.4723 73.9612 43.4723 75.1268C43.4723 76.2924 44.417 77.2371 45.5826 77.2371H58.2444C59.41 77.2371 60.3547 76.2924 60.3547 75.1268C60.3547 73.9612 59.41 73.0165 58.2444 73.0165Z" fill="#0F1636"/>
</svg>
