<svg width="109" height="101" viewBox="0 0 109 101" fill="none" xmlns="http://www.w3.org/2000/svg">
<path d="M106.055 36.4486C105.622 36.4486 105.207 36.6205 104.901 36.9264C104.595 37.2324 104.423 37.6474 104.423 38.0801V92.6561C103.27 94.0109 94.0978 96.5313 77.0879 96.5313C60.078 96.5313 50.9048 94.0109 49.7523 92.6561V32.9296C57.1229 36.2724 74.6262 36.3951 77.0879 36.3951C83.6009 36.397 90.1059 35.9386 96.5542 35.0233C93.7662 38.939 90.028 45.2615 90.8255 50.1797C91.3398 53.3658 90.0828 56.8012 88.0245 57.8362C85.675 59.0109 82.9275 56.7333 81.4983 55.2662C78.6099 52.01 74.5782 49.9916 70.2406 49.6302C67.4676 49.4823 64.8456 48.3211 62.8725 46.3671C61.3116 44.7918 60.2684 42.7778 59.8822 40.594C59.8384 40.3842 59.7537 40.1851 59.633 40.008C59.5122 39.8309 59.3578 39.6794 59.1785 39.562C58.9992 39.4446 58.7985 39.3637 58.5879 39.3239C58.3773 39.284 58.1609 39.2861 57.9511 39.3299C57.7413 39.3737 57.5422 39.4584 57.3651 39.5791C57.188 39.6999 57.0365 39.8543 56.9191 40.0336C56.8017 40.2129 56.7208 40.4136 56.681 40.6242C56.6412 40.8348 56.6432 41.0512 56.687 41.261C57.2018 44.0876 58.5681 46.6893 60.6027 48.7178C63.057 51.1591 66.3114 52.6306 69.7655 52.8606C73.3926 53.1241 76.7695 54.8073 79.1632 57.5451C82.1104 60.5733 84.6648 61.4321 86.6148 61.4321C87.6141 61.4342 88.5998 61.2017 89.4929 60.7534C92.8395 59.071 94.7987 54.3029 94.0495 49.6589C93.2924 44.96 98.9115 37.0516 101.481 33.9686C105.124 32.9466 107.689 31.4952 107.689 29.4303C107.689 22.6613 80.2231 22.4669 77.0905 22.4669C74.7698 22.4669 59.0886 22.5778 51.1162 25.388C52.2484 22.1017 53.2142 18.7603 54.0099 15.3768C55.8817 7.15378 55.4457 2.54629 52.689 1.29457C49.8175 -0.001535 45.8848 2.97049 40.6574 10.3895C40.4081 10.7433 40.3096 11.1816 40.3835 11.608C40.4575 12.0344 40.6977 12.414 41.0515 12.6632C41.4053 12.9124 41.8436 13.0109 42.27 12.937C42.6964 12.8631 43.076 12.6228 43.3253 12.269C48.3478 5.1398 50.9413 4.13868 51.3394 4.2666C53.0911 5.36039 51.3969 18.7548 42.0396 39.4089C38.9856 46.2865 35.4074 52.9193 31.3366 59.2485C28.4066 58.5704 25.6441 57.3064 23.2154 55.5325C23.607 54.1045 24.0599 52.5905 24.5833 50.9733C25.9759 51.9701 27.4622 52.8291 29.0211 53.5381C29.217 53.6313 29.4294 53.6846 29.6461 53.6947C29.8628 53.7049 30.0793 53.6718 30.283 53.5973C30.4867 53.5228 30.6735 53.4084 30.8325 53.2609C30.9914 53.1133 31.1194 52.9355 31.2089 52.738C31.2983 52.5404 31.3475 52.3269 31.3535 52.1101C31.3595 51.8933 31.3222 51.6775 31.2438 51.4752C31.1654 51.273 31.0475 51.0884 30.8969 50.9323C30.7463 50.7762 30.5661 50.6517 30.3668 50.566C28.6984 49.8091 27.1266 48.8551 25.685 47.7245C27.0933 43.7331 28.8567 39.2927 31.0586 34.4333C33.455 29.1115 36.1337 23.9215 39.0832 18.8853C39.1976 18.7008 39.2741 18.4953 39.3081 18.2809C39.342 18.0664 39.3329 17.8474 39.2811 17.6366C39.2294 17.4257 39.1361 17.2273 39.0067 17.053C38.8773 16.8787 38.7144 16.732 38.5276 16.6214C38.3408 16.5108 38.1337 16.4386 37.9187 16.4091C37.7036 16.3796 37.4848 16.3932 37.2751 16.4493C37.0653 16.5054 36.8689 16.6028 36.6973 16.7358C36.5257 16.8687 36.3823 17.0346 36.2757 17.2237C33.2667 22.3623 30.534 27.6578 28.0892 33.0876C26.288 37.0633 24.1552 42.266 22.3148 47.5901C22.2605 47.7023 22.2197 47.8206 22.1934 47.9425C21.3072 50.5256 20.4966 53.1295 19.8257 55.633C19.7865 55.735 19.7581 55.8409 19.7409 55.9488C18.4291 60.9296 17.7047 65.4771 18.1302 68.5992C16.378 68.422 14.6084 68.6486 12.9574 69.2618C11.3064 69.875 9.81793 70.8585 8.60623 72.1366C7.39453 73.4147 6.49187 74.9535 5.96756 76.6349C5.44325 78.3162 5.31124 80.0953 5.58167 81.8356C6.88691 93.3583 2.12148 96.6266 2.09537 96.6449C1.80153 96.8229 1.57137 97.089 1.43769 97.4055C1.304 97.722 1.27362 98.0725 1.35087 98.4073C1.42811 98.742 1.60905 99.0438 1.86789 99.2697C2.12672 99.4956 2.45025 99.634 2.79237 99.6652C3.73997 99.7514 4.65103 99.7957 5.53337 99.7957C21.5774 99.7957 27.032 86.0816 27.5136 84.7776C28.4916 82.5898 28.7625 80.1513 28.2885 77.8022C27.8144 75.453 26.6191 73.3104 24.8692 71.6731C27.5018 69.9358 30.4478 66.3894 33.3337 62.1096C33.4138 62.0158 33.4826 61.9128 33.5386 61.8028C37.8888 55.0876 41.7254 48.0532 45.0155 40.7598C45.522 39.6425 46.0127 38.5296 46.4879 37.421V92.8297C46.4879 99.5999 73.9553 99.7944 77.0866 99.7944C80.2178 99.7944 107.685 99.5999 107.685 92.8297V38.0801C107.685 37.6476 107.514 37.2328 107.208 36.9269C106.902 36.621 106.488 36.4489 106.055 36.4486V36.4486ZM24.5142 83.4868C24.492 83.5377 24.4711 83.5899 24.4528 83.6421C24.4084 83.7726 20.1677 95.9609 6.45748 96.5091C8.09164 93.8804 9.70753 89.2142 8.82257 81.4493C8.82257 81.4232 8.82257 81.3997 8.81213 81.3749C8.60895 80.1013 8.7064 78.7979 9.0967 77.5687C9.487 76.3395 10.1593 75.2185 11.06 74.2955C11.9607 73.3724 13.0647 72.6727 14.2839 72.2523C15.5032 71.8319 16.8038 71.7024 18.082 71.8742C19.3602 72.046 20.5805 72.5144 21.6455 73.2418C22.7104 73.9692 23.5905 74.9356 24.2155 76.0637C24.8404 77.1919 25.1929 78.4506 25.2447 79.7392C25.2966 81.0278 25.0464 82.3107 24.5142 83.4855V83.4868ZM21.7627 69.5755C20.8673 69.0169 20.8817 65.2278 22.3501 58.9156C24.5226 60.3264 26.8957 61.401 29.3892 62.103C25.6119 67.3749 22.773 69.8862 21.7627 69.5755ZM104.239 29.4303C102.991 30.1738 101.621 30.6929 100.193 30.964L100.101 30.9861C95.6915 32.0891 88.0127 33.1307 77.0814 33.1307C60.7737 33.1307 51.6683 30.8152 49.9324 29.4303C51.6723 28.0454 60.7776 25.73 77.0814 25.73C93.3851 25.73 102.5 28.0467 104.239 29.4316V29.4303Z" fill="#0F1636" stroke="#0F1636"/>
</svg>
