<svg width="31" height="31" viewBox="0 0 31 31" fill="none" xmlns="http://www.w3.org/2000/svg">
<path fill-rule="evenodd" clip-rule="evenodd" d="M17.9064 15.5358L30.6064 2.58575C31.1528 1.98971 31.1284 1.06786 30.5513 0.501529C29.9742 -0.0648046 29.0521 -0.071782 28.4664 0.485753L15.7864 13.4158L2.58643 0.465753C2.20853 0.0688109 1.64422 -0.0904276 1.11457 0.0504159C0.584907 0.191259 0.174228 0.609761 0.0434024 1.14198C-0.0874234 1.6742 0.0824333 2.23541 0.486435 2.60575L13.6664 15.5358L0.486435 28.4658C-0.0711007 29.0514 -0.0641233 29.9735 0.50221 30.5506C1.06854 31.1278 1.9904 31.1521 2.58643 30.6058L15.7864 17.6558L28.4664 30.5858C29.0521 31.1433 29.9742 31.1363 30.5513 30.57C31.1284 30.0036 31.1528 29.0818 30.6064 28.4858L17.9064 15.5358Z" fill="#0F1636"/>
</svg>
