<svg width="122" height="123" viewBox="0 0 122 123" fill="none" xmlns="http://www.w3.org/2000/svg">
<path d="M18.0012 23.0704C18.0756 23.0652 18.1484 23.0467 18.2162 23.0156C18.315 22.9681 18.4017 22.8987 18.4698 22.8128C18.6061 22.6724 18.6912 22.4902 18.7112 22.2955C18.7178 22.2051 18.7028 22.1143 18.6675 22.0308C18.6323 21.9472 18.5777 21.8732 18.5083 21.8148C18.4091 21.7198 18.2764 21.6681 18.1391 21.6707C17.9893 21.6753 17.841 21.7019 17.6989 21.7498C17.5407 21.8006 17.3764 21.8574 17.206 21.9243C17.0368 21.9906 16.8615 22.0402 16.6827 22.0724C16.507 22.1048 16.3269 22.1048 16.1512 22.0724C15.9562 22.0298 15.777 21.9336 15.6339 21.7945C15.5019 21.6794 15.3979 21.5358 15.3296 21.3746C15.2721 21.229 15.2498 21.0719 15.2647 20.9161C15.2822 20.7521 15.3311 20.5931 15.4087 20.4475C15.4943 20.2809 15.6021 20.1267 15.7292 19.9891C15.881 19.8209 16.0451 19.6643 16.2202 19.5205C16.3729 19.3971 16.5397 19.2922 16.7171 19.2081C16.7739 19.2649 16.8368 19.3325 16.9058 19.411C16.9768 19.488 17.0437 19.5651 17.1086 19.6463C17.1736 19.7274 17.2324 19.8025 17.2872 19.8755C17.3419 19.9485 17.3845 20.0114 17.419 20.0621L17.2547 20.2447L16.4636 19.8998C16.3916 19.9302 16.3235 19.969 16.2607 20.0155C16.1809 20.0746 16.108 20.1426 16.0437 20.2183C15.9379 20.3289 15.8722 20.4717 15.857 20.624C15.8512 20.697 15.8633 20.7702 15.8923 20.8374C15.9213 20.9046 15.9663 20.9636 16.0234 21.0094C16.1262 21.1073 16.2628 21.1618 16.4047 21.1616C16.5594 21.1576 16.7129 21.133 16.8612 21.0886C17.0214 21.0399 17.1918 20.9831 17.3683 20.9141C17.5406 20.8461 17.7193 20.7958 17.9018 20.764C18.0777 20.7336 18.2574 20.7336 18.4333 20.764C18.6236 20.8024 18.7989 20.8946 18.9384 21.0297C19.0732 21.14 19.1802 21.2804 19.2507 21.4397C19.3212 21.599 19.3532 21.7727 19.3441 21.9466C19.2905 22.3646 19.0959 22.7518 18.7923 23.044C18.7054 23.1384 18.6133 23.2278 18.5164 23.3118C18.4222 23.3939 18.3233 23.4704 18.2203 23.541C18.1328 23.6014 18.042 23.6569 17.9485 23.7074C17.8859 23.7458 17.8173 23.7732 17.7456 23.7885C17.6807 23.7236 17.6137 23.6506 17.5428 23.5694C17.4718 23.4883 17.4068 23.4031 17.3399 23.3179C17.273 23.2327 17.2121 23.1536 17.1533 23.0745C17.0944 22.9954 17.0478 22.9244 17.0072 22.8615L17.1715 22.6809L18.0012 23.0704Z" fill="black"/>
<path d="M22.4295 16.3966C22.2435 16.1704 22.0955 15.9156 21.9913 15.642C21.8945 15.3948 21.8503 15.1302 21.8615 14.865C21.8728 14.6036 21.9421 14.3479 22.0643 14.1165C22.2076 13.8575 22.4023 13.6304 22.6364 13.4491C22.8632 13.258 23.127 13.1158 23.4113 13.0312C23.6622 12.9581 23.9265 12.9429 24.1841 12.9866C24.4447 13.034 24.6931 13.1334 24.9144 13.2787C25.159 13.4398 25.3761 13.6391 25.5575 13.869C25.7428 14.0952 25.8914 14.3492 25.9976 14.6216C26.0923 14.8693 26.1364 15.1335 26.1275 15.3985C26.1174 15.6589 26.048 15.9135 25.9246 16.143C25.7814 16.4027 25.5868 16.6305 25.3526 16.8124C25.1246 17.0018 24.8612 17.1438 24.5777 17.2303C24.3253 17.303 24.06 17.3189 23.8008 17.2769C23.5391 17.231 23.2898 17.1316 23.0685 16.9848C22.8254 16.8242 22.6097 16.6255 22.4295 16.3966ZM23.2247 15.7677C23.3727 15.9531 23.537 16.1248 23.7156 16.2809C23.8638 16.4131 24.0323 16.5207 24.2146 16.5994C24.3678 16.6659 24.5348 16.6944 24.7014 16.6826C24.8711 16.6622 25.0307 16.5916 25.1599 16.4797C25.2847 16.3851 25.3746 16.2516 25.4155 16.1004C25.453 15.9458 25.453 15.7844 25.4155 15.6298C25.367 15.4399 25.2912 15.2582 25.1903 15.0902C25.071 14.8855 24.9353 14.6908 24.7846 14.508C24.6372 14.3221 24.4736 14.1497 24.2957 13.9928C24.1501 13.8595 23.9844 13.75 23.8048 13.6682C23.6539 13.5985 23.4878 13.5685 23.322 13.581C23.1509 13.6003 22.9896 13.671 22.8595 13.7838C22.7279 13.8818 22.6317 14.0199 22.5857 14.1774C22.5441 14.3322 22.5441 14.4952 22.5857 14.65C22.6351 14.8392 22.7131 15.0198 22.8169 15.1855C22.9398 15.3884 23.076 15.5829 23.2247 15.7677Z" fill="black"/>
<path d="M32.2475 11.5281C32.4174 11.458 32.5993 11.4214 32.7831 11.4206L32.8967 11.6235L31.2962 12.5403L31.1826 12.3375C31.2214 12.2728 31.2641 12.2105 31.3104 12.1509C31.3588 12.0871 31.4124 12.0274 31.4706 11.9724L29.791 9.03302C29.7108 9.06 29.6277 9.0777 29.5435 9.08576C29.4761 9.09262 29.4084 9.09601 29.3407 9.09591L29.2291 8.89306L31.9372 7.34326C31.9757 7.41223 32.0163 7.48932 32.0548 7.57451C32.0934 7.65971 32.136 7.74694 32.1745 7.83619C32.213 7.92545 32.2516 8.0147 32.2861 8.10193C32.3206 8.18916 32.351 8.27233 32.3753 8.34941L32.1725 8.47112L31.5842 7.99645L30.5801 8.57255L31.3388 9.93977L32.0792 9.51581V9.04317L32.2394 8.95188C32.3667 9.11818 32.4813 9.29381 32.5822 9.47727C32.6864 9.66525 32.7736 9.84173 32.8439 10.0067L32.6837 10.1L32.278 9.85255L31.5416 10.2765L32.2475 11.5281Z" fill="black"/>
<path d="M40.5767 7.98022L38.8443 8.67397L38.7591 8.47112C38.8678 8.33695 38.998 8.22178 39.1445 8.13033L37.8848 4.99626C37.8003 5.01592 37.7139 5.0268 37.6272 5.02871C37.5418 5.03316 37.4562 5.02909 37.3716 5.01654L37.2864 4.81369L39.0147 4.11994L39.0999 4.32279C38.9935 4.45863 38.8628 4.5735 38.7145 4.66155L39.9742 7.79765C40.0586 7.78121 40.144 7.77037 40.2298 7.76519C40.3158 7.75898 40.4023 7.76307 40.4874 7.77737L40.5767 7.98022Z" fill="black"/>
<path d="M46.9016 5.97401L45.4695 6.32089L45.4167 6.09978C45.4697 6.04402 45.5281 5.99373 45.5912 5.94967C45.6554 5.90492 45.7233 5.86557 45.794 5.83201L46.3864 1.7283L46.8164 1.62485L49.1695 5.01451C49.2518 5.00751 49.3346 5.00751 49.417 5.01451C49.4945 5.0233 49.5707 5.041 49.6442 5.06726L49.6969 5.28837L47.8814 5.72653L47.8286 5.50542C47.8935 5.4547 47.9645 5.40196 48.0437 5.34922C48.1156 5.30141 48.1909 5.2587 48.2688 5.22143L47.711 4.37959L46.4229 4.69198L46.3032 5.70624C46.4864 5.68624 46.6717 5.70208 46.8489 5.7529L46.9016 5.97401ZM46.4716 4.29033L47.498 4.04285L46.8529 3.02859L46.6217 2.55594H46.6095V3.09553L46.4716 4.29033Z" fill="black"/>
<path d="M61.3447 4.17268L61.3548 3.94751C61.4288 3.90859 61.5062 3.87668 61.5861 3.85217C61.6729 3.82565 61.7618 3.80665 61.8518 3.79537L61.9959 0.419905C61.9071 0.39639 61.8197 0.367946 61.7342 0.334707C61.6576 0.30434 61.5836 0.267702 61.5131 0.225166L61.5232 0L62.2149 0.0284C62.2839 0.0284 62.3671 0.0284 62.4665 0.0284H63.0953C63.1967 0.0284 63.2819 0.0284 63.355 0.0284C63.6695 0.0365663 63.9806 0.096182 64.2759 0.204881C64.5283 0.297958 64.7579 0.443888 64.9494 0.6329C65.1348 0.821486 65.2737 1.05069 65.3551 1.30231C65.4505 1.59245 65.489 1.89825 65.4687 2.20298C65.461 2.5094 65.3999 2.81212 65.2881 3.09756C65.188 3.35371 65.0313 3.58394 64.8297 3.77103C64.6151 3.96042 64.3607 4.09908 64.0852 4.17673C63.7497 4.27495 63.3995 4.3134 63.0507 4.29033C62.9828 4.28848 62.9151 4.28306 62.8478 4.2741L62.5679 4.24367L62.2636 4.22542C62.1642 4.22542 62.077 4.20919 62.0019 4.20513L61.3447 4.17268ZM63.2556 0.413819C63.1846 0.413819 63.1136 0.413819 63.0405 0.413819C62.9675 0.413819 62.9067 0.413819 62.8559 0.413819L62.7079 3.86231C62.7349 3.87007 62.7629 3.87417 62.791 3.87448L62.9127 3.88666L63.0365 3.89883H63.1257C63.3302 3.91357 63.5348 3.87292 63.7181 3.78117C63.8799 3.69 64.0186 3.56302 64.1238 3.40995C64.2393 3.23801 64.3237 3.04714 64.3733 2.84602C64.4332 2.61934 64.4672 2.3866 64.4747 2.15227C64.4849 1.93952 64.4692 1.72632 64.4281 1.51734C64.3928 1.32309 64.3242 1.13641 64.2252 0.965578C64.1271 0.793678 63.9855 0.650662 63.8146 0.550945C63.6436 0.451228 63.4494 0.398334 63.2515 0.397592L63.2556 0.413819Z" fill="black"/>
<path d="M74.5727 1.54574C74.5301 1.72019 74.4794 1.8987 74.4226 2.08127C74.3658 2.26383 74.3029 2.43626 74.238 2.59246L73.9986 2.54377L73.8708 1.79119L72.7775 1.56805L72.4854 3.0083L73.1994 3.15436L73.5483 2.74865L73.7349 2.80545C73.7119 3.02136 73.678 3.23598 73.6335 3.44849C73.5868 3.68177 73.5321 3.89883 73.4712 4.09762L73.2846 4.05908L73.1264 3.53369L72.4144 3.38967L72.104 4.90903L73.244 5.14231L73.7045 4.46276L73.9459 4.51144C73.9459 4.58853 73.9459 4.67575 73.9459 4.77312C73.9459 4.87049 73.9337 4.97597 73.9236 5.06929C73.9134 5.1626 73.9013 5.27214 73.885 5.37559C73.8688 5.47905 73.8546 5.57844 73.8384 5.65756L70.6739 5.01249L70.7185 4.79138C70.7984 4.76775 70.8797 4.74945 70.9619 4.73661C71.0517 4.72193 71.1428 4.71649 71.2338 4.72038L71.9072 1.40983C71.8268 1.3747 71.7483 1.33543 71.6719 1.29217C71.5994 1.24904 71.5315 1.19875 71.4691 1.14206L71.5137 0.918922L74.5727 1.54574Z" fill="black"/>
<path d="M82.3115 7.00247L82.5468 7.08767C82.5326 7.17287 82.5144 7.26618 82.4921 7.36963C82.4698 7.47309 82.4414 7.57249 82.413 7.69014C82.3846 7.80779 82.3541 7.90922 82.3217 8.01673C82.2892 8.12425 82.2547 8.21958 82.2223 8.31087L79.0659 7.14041L79.1998 6.7773L82.5529 4.39176L81.1654 3.87854L80.5386 4.55607L80.3033 4.46884C80.3155 4.37959 80.3337 4.28019 80.3581 4.17065C80.3804 4.06111 80.4068 3.94954 80.4352 3.84C80.4635 3.73046 80.494 3.62295 80.5264 3.52355C80.5589 3.42415 80.5893 3.3349 80.6177 3.26187L83.6057 4.36741L83.4718 4.73255L80.1288 7.12215L81.6624 7.69014L82.3115 7.00247Z" fill="black"/>
<path d="M88.2227 11.1833L86.9386 10.4591L87.0502 10.2562C87.1271 10.2502 87.2044 10.2502 87.2814 10.2562C87.3571 10.2658 87.4318 10.2821 87.5046 10.3049L90.738 7.71043L91.1235 7.92748L90.5331 12.015C90.5958 12.0699 90.6541 12.1296 90.7076 12.1935C90.7592 12.2558 90.8034 12.3239 90.8395 12.3963L90.7279 12.5992L89.1051 11.6802L89.2166 11.4774C89.2998 11.4774 89.387 11.4957 89.4783 11.5099C89.5641 11.5244 89.6488 11.5448 89.7319 11.5707L89.8982 10.5747L88.746 9.9276L87.9731 10.5808C88.1209 10.6907 88.2457 10.8285 88.3403 10.9865L88.2227 11.1833ZM89.0564 9.65984L89.9753 10.1791L90.1984 8.99651L90.3526 8.49344H90.3425L89.9631 8.89103L89.0564 9.65984Z" fill="black"/>
<path d="M99.3126 13.6155L100.56 14.6155L100.418 14.792C100.333 14.7821 100.249 14.7624 100.169 14.7332C100.091 14.7063 100.016 14.6731 99.9435 14.6338L98.1584 15.0395C98.1584 15.1957 98.1442 15.3762 98.1401 15.5791C98.1361 15.7819 98.1401 15.9848 98.1401 16.216C98.1401 16.4473 98.1401 16.6643 98.1401 16.8936C98.1401 17.1228 98.1523 17.3459 98.1604 17.5569L98.276 17.8713L98.1503 18.0295L97.3388 17.3804L97.2577 17.1005C97.2577 16.949 97.2618 16.7827 97.2699 16.6015C97.2699 16.4229 97.2922 16.2404 97.3084 16.0517C97.3247 15.8631 97.347 15.6785 97.3672 15.4918C97.3875 15.3052 97.4139 15.1267 97.4403 14.9523L97.2374 14.792L96.2637 16.0091C96.3192 16.0707 96.3669 16.1388 96.4057 16.212C96.4396 16.2767 96.4667 16.3446 96.4869 16.4148L96.3449 16.5913L94.9249 15.4614L95.0669 15.2849C95.1535 15.3034 95.2388 15.3271 95.3225 15.3559C95.4035 15.3825 95.4822 15.4158 95.5578 15.4553L97.6675 12.8183C97.6048 12.7523 97.5496 12.6795 97.5032 12.6012C97.4595 12.5308 97.4235 12.456 97.3957 12.3781L97.5356 12.1996L98.9556 13.3294L98.8136 13.508C98.7452 13.4977 98.6775 13.4835 98.6107 13.4654C98.5307 13.4429 98.4526 13.4137 98.3774 13.3781L97.4301 14.5709L97.7567 14.7251L99.4019 14.2078C99.3486 14.1458 99.303 14.0777 99.2659 14.0049C99.2306 13.939 99.1988 13.8713 99.1706 13.8021L99.3126 13.6155Z" fill="black"/>
<path d="M103.149 22.969L101.877 21.6079L102.043 21.4537C102.207 21.5065 102.361 21.586 102.499 21.689L104.974 19.3846C104.926 19.3128 104.885 19.2368 104.85 19.1574C104.817 19.0779 104.791 18.9958 104.771 18.9119L104.938 18.7578L106.208 20.1189L106.041 20.2731C105.958 20.2493 105.877 20.2173 105.8 20.1777C105.724 20.1411 105.651 20.0976 105.583 20.0479L103.114 22.3543C103.159 22.4271 103.199 22.5023 103.236 22.5795C103.272 22.6581 103.299 22.7404 103.317 22.825L103.149 22.969Z" fill="black"/>
<path d="M111.023 30.3284C111.077 30.2925 111.138 30.2685 111.201 30.258C111.265 30.2475 111.33 30.2508 111.393 30.2676C111.456 30.2866 111.515 30.3181 111.566 30.3603C111.618 30.4024 111.66 30.4544 111.691 30.513C111.766 30.6254 111.795 30.7632 111.77 30.8964C111.756 30.9597 111.729 31.0195 111.691 31.0716C111.652 31.1237 111.603 31.167 111.547 31.1987C111.493 31.2339 111.432 31.257 111.368 31.2661C111.304 31.2752 111.239 31.2702 111.177 31.2514C111.05 31.2084 110.943 31.1195 110.877 31.0019C110.803 30.891 110.776 30.7556 110.8 30.6246C110.814 30.5622 110.841 30.5035 110.88 30.4525C110.918 30.4014 110.967 30.3591 111.023 30.3284Z" fill="black"/>
<path d="M118.91 42.0026L119.47 43.879L119.253 43.9439C119.183 43.8715 119.121 43.7928 119.066 43.7086C119.012 43.6244 118.964 43.5363 118.922 43.4449L115.677 44.4125L116.005 45.516L117.143 45.5951L117.214 45.8284C117.129 45.871 117.032 45.9156 116.918 45.9643C116.805 46.013 116.683 46.0597 116.555 46.1063L116.178 46.2382C116.052 46.2787 115.942 46.3112 115.845 46.3355L114.914 43.1954L115.131 43.1325C115.197 43.1999 115.258 43.2718 115.314 43.3475C115.359 43.4118 115.4 43.4796 115.435 43.5504L118.681 42.5868C118.655 42.4137 118.664 42.2371 118.707 42.0675L118.91 42.0026Z" fill="black"/>
<path d="M121.529 53.9243C121.35 53.9425 121.166 53.9547 120.973 53.9608C120.78 53.9669 120.602 53.9608 120.432 53.9608L120.391 53.7214L121.05 53.3502L120.894 52.2467L119.446 52.4495L119.547 53.1696L120.04 53.3725L120.066 53.5632C119.855 53.6141 119.641 53.6541 119.425 53.6829C119.19 53.7173 118.967 53.7376 118.76 53.7478L118.734 53.5591L119.164 53.2325L119.062 52.5104L117.525 52.7294L117.689 53.8817L118.482 54.0845L118.517 54.3259C118.446 54.3523 118.362 54.3807 118.269 54.4091C118.176 54.4375 118.082 54.4659 117.983 54.4902L117.681 54.5551C117.579 54.5754 117.478 54.5937 117.399 54.6038L116.947 51.4089L117.172 51.3764C117.22 51.441 117.264 51.5088 117.304 51.5793C117.347 51.6587 117.383 51.7423 117.411 51.8288L120.756 51.3561C120.761 51.2683 120.772 51.1809 120.789 51.0945C120.803 51.0095 120.826 50.9265 120.86 50.847L121.083 50.8145L121.529 53.9243Z" fill="black"/>
<path d="M117.734 62.8356L117.762 60.7827H117.987C118.02 60.8638 118.05 60.9551 118.082 61.0565C118.115 61.1571 118.139 61.2602 118.153 61.3649L121.543 61.4075V60.7158L120.529 60.3202V60.0768C120.61 60.0626 120.711 60.0463 120.835 60.0321C120.959 60.0179 121.085 60.0058 121.217 59.9956L121.608 59.9713C121.738 59.9713 121.847 59.9713 121.939 59.9713L121.89 63.7667C121.795 63.7667 121.687 63.7667 121.555 63.7504C121.423 63.7342 121.3 63.7301 121.168 63.7159L120.797 63.6612C120.675 63.6429 120.574 63.6267 120.49 63.6084V63.365L121.517 62.9958V62.3041L118.127 62.2595C118.107 62.3629 118.08 62.4623 118.052 62.5658C118.026 62.659 117.991 62.7494 117.947 62.8356H117.734Z" fill="black"/>
<path d="M116.754 71.7246L117.103 69.696L117.326 69.7346C117.344 69.8177 117.36 69.9131 117.377 70.0186C117.392 70.1233 117.399 70.2291 117.397 70.335L120.738 70.9111L120.855 70.2295L119.914 69.6798L119.957 69.4384C120.038 69.4384 120.139 69.4384 120.265 69.4384C120.391 69.4384 120.517 69.4526 120.649 69.4628C120.78 69.4729 120.91 69.4851 121.038 69.4993C121.166 69.5135 121.277 69.5277 121.367 69.5439L120.722 73.2845C120.628 73.2683 120.519 73.2439 120.395 73.2155C120.271 73.1871 120.143 73.1547 120.018 73.1202C119.892 73.0857 119.768 73.0512 119.651 73.0147C119.533 72.9782 119.436 72.9457 119.356 72.9153L119.397 72.6739L120.468 72.4711L120.586 71.7895L117.245 71.2134C117.208 71.3107 117.168 71.4162 117.123 71.5034C117.083 71.5913 117.034 71.6749 116.977 71.753L116.754 71.7246Z" fill="black"/>
<path d="M118.265 81.9179C118.099 81.853 117.928 81.78 117.754 81.7008C117.579 81.6217 117.417 81.5386 117.269 81.4554L117.348 81.2241L118.103 81.1897L118.46 80.1328L117.076 79.6622L116.843 80.3539L117.194 80.7596L117.133 80.9401C116.93 80.8955 116.727 80.8367 116.506 80.7596C116.285 80.6825 116.072 80.6034 115.884 80.5182L115.944 80.3356L116.474 80.2383L116.707 79.5486L115.238 79.0516L114.865 80.1551L115.474 80.6967L115.395 80.928C115.32 80.928 115.232 80.9077 115.137 80.8915C115.042 80.8752 114.944 80.857 114.845 80.8347C114.746 80.8123 114.642 80.786 114.547 80.7576C114.451 80.7292 114.344 80.7028 114.271 80.6744L115.305 77.6154L115.52 77.6884C115.533 77.7704 115.541 77.853 115.545 77.9359C115.548 78.0268 115.543 78.1179 115.529 78.2077L118.736 79.2808C118.78 79.2047 118.828 79.1316 118.882 79.0617C118.934 78.9927 118.992 78.9289 119.056 78.8711L119.271 78.9441L118.265 81.9179Z" fill="black"/>
<path d="M111.912 87.0054C111.858 87.0721 111.796 87.1326 111.729 87.186L111.549 87.328L111.346 87.2225L112.2 85.5997L112.403 85.7052C112.405 85.7968 112.399 85.8885 112.384 85.979C112.37 86.0597 112.352 86.1396 112.33 86.2184L115.32 87.7803C115.43 87.646 115.558 87.5272 115.701 87.4274L115.904 87.5329L115.61 88.0948C115.573 88.1637 115.533 88.2449 115.49 88.3362L115.354 88.6262L115.212 88.9366C115.163 89.0421 115.115 89.1394 115.064 89.2368C114.971 89.4183 114.854 89.5868 114.717 89.7379C114.599 89.8704 114.457 89.9786 114.297 90.0563C114.148 90.127 113.985 90.1618 113.821 90.1578C113.64 90.1498 113.463 90.0998 113.305 90.0117C113.076 89.904 112.889 89.7235 112.774 89.4985C112.674 89.2796 112.64 89.0366 112.674 88.7987C112.38 88.823 112.066 88.8555 111.764 88.894C111.461 88.9325 111.143 88.9833 110.837 89.0482L110.536 89.2145L110.356 89.1192L110.818 88.2367L111.11 88.1008C111.405 88.0375 111.706 88.0109 112.007 88.0217C112.326 88.0217 112.632 88.0501 112.928 88.0826L113.151 87.6546L111.912 87.0054ZM114.819 88.8676C114.868 88.7794 114.904 88.6844 114.926 88.5857L113.451 87.8128L113.291 88.1252C113.244 88.2107 113.216 88.3049 113.207 88.402C113.199 88.4991 113.211 88.5969 113.242 88.6891C113.285 88.7985 113.348 88.8984 113.429 88.983C113.51 89.0677 113.608 89.1353 113.715 89.182C113.828 89.2434 113.951 89.2845 114.078 89.3038C114.179 89.3185 114.282 89.3097 114.379 89.278C114.475 89.2463 114.563 89.1926 114.636 89.1212C114.71 89.0466 114.771 88.9611 114.819 88.8676Z" fill="black"/>
<path d="M106.447 95.0323L107.536 93.5231L107.721 93.6549C107.701 93.8262 107.652 93.9928 107.577 94.1479L110.317 96.1176C110.379 96.0554 110.447 96.0003 110.52 95.9533C110.59 95.9043 110.665 95.8621 110.743 95.8275L110.928 95.9593L109.843 97.4767L109.658 97.3448C109.665 97.2581 109.681 97.1724 109.707 97.0892C109.731 97.0075 109.762 96.9281 109.8 96.8519L107.061 94.8741C106.997 94.9323 106.93 94.9866 106.859 95.0364C106.79 95.0896 106.714 95.1332 106.633 95.1662L106.447 95.0323Z" fill="black"/>
<path d="M104.163 104.059L103.13 105.12L102.964 104.958C102.975 104.859 102.995 104.762 103.025 104.668C103.053 104.579 103.089 104.493 103.13 104.41L100.436 101.797L100.789 101.434L104.441 102.043L104.936 102.193L104.948 102.181L104.568 101.885L102.785 100.148C102.704 100.197 102.619 100.238 102.53 100.27C102.441 100.304 102.349 100.332 102.256 100.351L102.094 100.193L103.12 99.136L103.284 99.2942C103.249 99.4767 103.189 99.6534 103.106 99.8196L105.437 102.088C105.516 102.054 105.598 102.021 105.68 101.99C105.759 101.964 105.838 101.941 105.919 101.923L106.082 102.081L105.177 103.015L102.203 102.511L101.645 102.351L101.627 102.367L102.017 102.704L103.437 104.09C103.525 104.043 103.618 104.004 103.712 103.972C103.8 103.941 103.89 103.919 103.982 103.905L104.163 104.059Z" fill="black"/>
<path d="M93.3913 108.009C93.4405 107.916 93.4954 107.826 93.5556 107.739C93.6245 107.64 93.7016 107.536 93.7848 107.437C93.868 107.337 93.9572 107.234 94.0485 107.149C94.1272 107.067 94.2127 106.991 94.3041 106.924C94.5496 106.736 94.8236 106.59 95.1155 106.489C95.3706 106.404 95.6417 106.377 95.9087 106.41C96.1777 106.447 96.4346 106.546 96.6592 106.698C96.9224 106.881 97.1517 107.108 97.3367 107.37C97.5461 107.638 97.6968 107.948 97.779 108.279C97.8415 108.542 97.8451 108.817 97.7897 109.082C97.7343 109.347 97.6212 109.597 97.4585 109.814C97.3015 110.028 97.1135 110.216 96.9006 110.374C96.7009 110.52 96.4907 110.652 96.2718 110.768C96.1048 110.861 95.9251 110.929 95.7383 110.97C95.7018 110.922 95.6592 110.859 95.6084 110.78C95.5577 110.701 95.505 110.615 95.4522 110.52C95.3995 110.425 95.3468 110.331 95.296 110.234C95.2506 110.146 95.21 110.055 95.1743 109.962L95.3772 109.818L96.1886 110.35C96.2534 110.332 96.3155 110.305 96.3732 110.271C96.4503 110.226 96.5233 110.177 96.5943 110.127C96.7252 110.031 96.835 109.909 96.9168 109.77C97.0036 109.622 97.0517 109.456 97.0568 109.285C97.0634 109.077 97.0282 108.87 96.9534 108.676C96.8533 108.418 96.7167 108.175 96.5477 107.956C96.4061 107.758 96.2374 107.581 96.0466 107.431C95.8853 107.301 95.7027 107.201 95.507 107.135C95.3341 107.077 95.1506 107.058 94.9695 107.078C94.7909 107.101 94.6216 107.171 94.4786 107.281C94.4281 107.317 94.3812 107.357 94.3386 107.402C94.2947 107.444 94.254 107.49 94.2169 107.538C94.1838 107.579 94.1546 107.624 94.1296 107.67C94.1126 107.699 94.1002 107.73 94.0931 107.763L94.7565 108.668C94.8413 108.615 94.9327 108.572 95.0283 108.542C95.1177 108.514 95.2093 108.494 95.3021 108.481L95.436 108.664L94.1236 109.63L93.9897 109.447C93.9988 109.389 94.018 109.334 94.0465 109.283C94.0845 109.21 94.1308 109.142 94.1844 109.08L93.3913 108.009Z" fill="black"/>
<path d="M81.3012 114.056L82.6847 113.547L82.7638 113.76C82.7159 113.82 82.663 113.876 82.6056 113.928C82.5497 113.98 82.4893 114.027 82.4251 114.068L82.3135 118.212L81.8976 118.364L79.1612 115.273C79.0792 115.285 78.9965 115.291 78.9137 115.291C78.8352 115.29 78.7571 115.281 78.6804 115.265L78.6033 115.062L80.356 114.415L80.433 114.628C80.3722 114.692 80.3078 114.752 80.2403 114.808C80.1762 114.864 80.1085 114.916 80.0375 114.963L80.6907 115.733L81.9342 115.275V114.261C81.7544 114.302 81.5683 114.307 81.3865 114.277L81.3012 114.056ZM81.924 115.679L80.9341 116.044L81.6928 116.979L81.9768 117.421H81.9869L81.9281 116.882L81.924 115.679Z" fill="black"/>
<path d="M72.4163 117.058C72.3304 117.058 72.2447 117.048 72.1607 117.03L71.9376 116.977L71.895 116.754L73.6983 116.403L73.743 116.626C73.6726 116.685 73.5973 116.737 73.5178 116.782C73.4457 116.822 73.3711 116.858 73.2947 116.89L73.9377 120.204C74.1115 120.206 74.2842 120.232 74.4509 120.281L74.4935 120.505L73.8728 120.624C73.7937 120.64 73.7065 120.659 73.6071 120.683L73.2967 120.758L72.966 120.841C72.8545 120.868 72.7449 120.892 72.6395 120.912C72.4394 120.954 72.2347 120.968 72.0309 120.955C71.8538 120.944 71.6803 120.9 71.5197 120.825C71.3715 120.753 71.2423 120.648 71.1424 120.517C71.0377 120.369 70.9683 120.2 70.9395 120.022C70.8797 119.776 70.904 119.518 71.0085 119.287C71.117 119.073 71.2845 118.894 71.4913 118.772C71.2884 118.557 71.0741 118.34 70.8483 118.121C70.6224 117.902 70.3898 117.692 70.1504 117.492L69.832 117.36L69.7934 117.157L70.7712 116.969L71.0613 117.111C71.2936 117.301 71.502 117.519 71.682 117.76C71.8848 118.016 72.0512 118.267 72.2094 118.519L72.6841 118.427L72.4163 117.058ZM72.7774 120.492C72.8774 120.475 72.9745 120.444 73.0654 120.399L72.747 118.764L72.4001 118.831C72.3043 118.848 72.2131 118.885 72.1322 118.939C72.0512 118.993 71.9822 119.064 71.9295 119.145C71.8704 119.247 71.8321 119.359 71.8168 119.475C71.8014 119.592 71.8094 119.71 71.8402 119.823C71.8615 119.95 71.9062 120.072 71.9721 120.182C72.0245 120.272 72.0975 120.348 72.1851 120.405C72.269 120.457 72.363 120.491 72.4609 120.505C72.5664 120.517 72.6731 120.512 72.7774 120.492Z" fill="black"/>
<path d="M62.1276 117.823L64.1785 117.74L64.1886 117.967C64.1102 118.001 64.0209 118.037 63.9208 118.076C63.8222 118.114 63.7204 118.144 63.6166 118.164L63.7505 121.549L64.4422 121.523L64.783 120.488H65.0284C65.0467 120.567 65.067 120.667 65.0872 120.791C65.1075 120.914 65.1278 121.04 65.1441 121.17C65.1603 121.3 65.1765 121.432 65.1907 121.559C65.2049 121.687 65.211 121.799 65.215 121.89L61.4217 122.04C61.4217 121.945 61.4217 121.837 61.4217 121.707C61.4217 121.578 61.4217 121.45 61.4359 121.318C61.4501 121.186 61.4521 121.058 61.4623 120.937C61.4724 120.815 61.4846 120.713 61.4988 120.628H61.7422L62.1641 121.643L62.8559 121.614L62.722 118.226C62.6185 118.21 62.5191 118.192 62.4116 118.168C62.317 118.146 62.2247 118.115 62.1357 118.076L62.1276 117.823Z" fill="black"/>
<path d="M54.1535 117.431L56.0055 117.622L55.9812 117.847C55.8231 117.916 55.6543 117.957 55.4822 117.969L55.1373 121.33C55.2205 121.352 55.3014 121.382 55.3787 121.419C55.4561 121.457 55.5301 121.501 55.5998 121.551L55.5775 121.776L53.7255 121.586L53.7478 121.361C53.9048 121.288 54.0742 121.247 54.2468 121.239L54.5917 117.878C54.5103 117.851 54.4304 117.821 54.3523 117.786C54.2733 117.752 54.1984 117.708 54.1292 117.656L54.1535 117.431Z" fill="black"/>
<path d="M48.0192 116.857C47.9784 116.795 47.9277 116.74 47.8691 116.695C47.7818 116.63 47.6815 116.585 47.575 116.563C47.3856 116.511 47.1841 116.524 47.003 116.6C46.9208 116.637 46.8486 116.693 46.7925 116.763C46.7364 116.834 46.698 116.917 46.6804 117.005C46.6619 117.07 46.6565 117.139 46.6645 117.206C46.6725 117.273 46.6938 117.338 46.7271 117.397C46.8022 117.527 46.8966 117.645 47.007 117.748C47.1267 117.863 47.2565 117.979 47.3945 118.099C47.5328 118.217 47.6585 118.348 47.7697 118.492C47.8817 118.632 47.9669 118.792 48.0213 118.963C48.0762 119.154 48.0762 119.358 48.0213 119.549C47.9834 119.721 47.9064 119.881 47.7961 120.018C47.6958 120.137 47.5686 120.231 47.4249 120.292C47.2722 120.354 47.1091 120.387 46.9441 120.389C46.7568 120.391 46.57 120.37 46.3883 120.324C46.1683 120.273 45.9526 120.206 45.7432 120.121C45.5619 120.046 45.3903 119.949 45.232 119.833C45.2544 119.758 45.2848 119.669 45.3172 119.571C45.3497 119.474 45.3882 119.369 45.4288 119.283C45.4694 119.198 45.5079 119.099 45.5465 119.016C45.585 118.932 45.6195 118.865 45.6479 118.813L45.8852 118.872L45.9603 119.732C46.0192 119.777 46.0832 119.815 46.151 119.845C46.2392 119.887 46.3317 119.92 46.4268 119.943C46.5736 119.985 46.7303 119.975 46.8711 119.916C46.938 119.887 46.9966 119.842 47.0419 119.784C47.0871 119.727 47.1177 119.659 47.1307 119.588C47.167 119.451 47.1496 119.306 47.0821 119.182C47.0075 119.046 46.9131 118.923 46.8021 118.815C46.6845 118.695 46.5526 118.573 46.4066 118.452C46.2656 118.329 46.1366 118.193 46.0211 118.046C45.9092 117.907 45.8227 117.75 45.7655 117.581C45.7093 117.396 45.7093 117.197 45.7655 117.011C45.7958 116.838 45.8667 116.674 45.9725 116.533C46.0783 116.392 46.2159 116.278 46.3741 116.2C46.7644 116.052 47.1932 116.04 47.5912 116.165C47.7165 116.197 47.8398 116.235 47.9604 116.281C48.0821 116.328 48.1957 116.378 48.3012 116.431C48.4067 116.484 48.5041 116.541 48.5771 116.591C48.6411 116.631 48.6986 116.68 48.7475 116.738C48.7203 116.833 48.6871 116.926 48.6481 117.017C48.6075 117.117 48.5669 117.22 48.5243 117.314C48.4817 117.407 48.4391 117.504 48.3965 117.592C48.354 117.679 48.3154 117.758 48.2789 117.823L48.0416 117.764L48.0192 116.857Z" fill="black"/>
<path d="M38.2904 113.127L40.1871 113.914L40.0999 114.117L39.8118 114.105C39.7064 114.097 39.6018 114.08 39.4994 114.054L38.2012 117.186L38.8442 117.458L39.5867 116.66L39.8139 116.754C39.7976 116.835 39.7733 116.934 39.7408 117.054C39.7084 117.174 39.6719 117.297 39.6333 117.423C39.5948 117.549 39.5542 117.673 39.5116 117.794C39.469 117.916 39.4305 118.022 39.396 118.105L35.8887 116.652C35.9252 116.563 35.9718 116.462 36.0286 116.348C36.0854 116.234 36.1422 116.119 36.2051 116.001C36.268 115.884 36.3268 115.774 36.3877 115.666C36.4485 115.559 36.5033 115.464 36.55 115.401L36.7751 115.496L36.7386 116.583L37.3776 116.849L38.6759 113.717C38.5886 113.66 38.5014 113.599 38.4203 113.534C38.3466 113.473 38.2787 113.405 38.2174 113.332L38.2904 113.127Z" fill="black"/>
<path d="M29.5536 108.376L29.7017 108.67C29.7605 108.792 29.8048 108.921 29.8336 109.053C30.0385 109.01 30.2497 109.005 30.4563 109.039C30.7155 109.079 30.9632 109.173 31.1825 109.317C31.3839 109.438 31.5619 109.594 31.7079 109.778C31.8225 109.925 31.9067 110.093 31.9554 110.273C31.9969 110.43 32.0046 110.595 31.9777 110.755C31.9512 110.907 31.8954 111.051 31.8134 111.181C31.7237 111.33 31.6017 111.457 31.4564 111.553C31.3222 111.639 31.1768 111.708 31.0243 111.755C30.8838 111.803 30.738 111.833 30.5902 111.845C30.4716 111.856 30.3523 111.86 30.2332 111.857C30.2608 112.01 30.2649 112.167 30.2454 112.321C30.2286 112.476 30.178 112.625 30.0973 112.758C30.0396 112.847 29.964 112.924 29.8754 112.983C29.7867 113.042 29.6869 113.082 29.582 113.1C29.46 113.123 29.3348 113.123 29.2128 113.1C29.0682 113.068 28.9307 113.01 28.8071 112.928C28.5918 112.806 28.4207 112.62 28.3183 112.394C28.2764 112.296 28.2603 112.188 28.2717 112.082C28.283 111.975 28.3214 111.873 28.3832 111.786C28.4423 111.691 28.5186 111.608 28.6083 111.54C28.6974 111.473 28.795 111.418 28.8984 111.376C29.0054 111.333 29.1161 111.301 29.2291 111.279C29.344 111.255 29.4607 111.24 29.578 111.234C29.5303 110.684 29.4256 110.14 29.2656 109.611C29.1926 109.646 29.1245 109.689 29.0627 109.741C28.9649 109.815 28.8733 109.897 28.7889 109.987C28.6901 110.087 28.5999 110.196 28.5191 110.311C28.4367 110.426 28.3717 110.553 28.3264 110.686C28.3698 110.725 28.4074 110.771 28.4379 110.82C28.4683 110.87 28.4948 110.922 28.5171 110.977L28.3953 111.179L27.2452 110.453L27.3649 110.25C27.5045 110.254 27.6422 110.284 27.7706 110.34C27.8799 110.206 27.9963 110.078 28.1195 109.956C28.2359 109.841 28.3592 109.732 28.4887 109.632C28.6015 109.543 28.7201 109.461 28.8436 109.388C28.9357 109.33 29.0354 109.285 29.1398 109.254C29.0898 109.082 29.0288 108.914 28.9572 108.749C28.8862 108.591 28.8152 108.441 28.7402 108.299L28.5597 108.015L28.6793 107.822L29.5536 108.376ZM29.4847 112.433C29.5189 112.376 29.5436 112.314 29.5577 112.248C29.5762 112.173 29.5885 112.096 29.5942 112.019C29.5942 111.938 29.5942 111.857 29.5942 111.778C29.5942 111.699 29.5942 111.622 29.5739 111.555C29.4128 111.567 29.2576 111.62 29.1236 111.711C28.9913 111.802 28.8816 111.922 28.8031 112.062C28.7538 112.152 28.7326 112.254 28.7422 112.356C28.7508 112.408 28.7715 112.458 28.8024 112.501C28.8334 112.544 28.8739 112.579 28.9207 112.603C28.9659 112.637 29.0189 112.658 29.0747 112.665C29.1304 112.672 29.1871 112.665 29.2392 112.644C29.3408 112.599 29.4264 112.524 29.4847 112.429V112.433ZM29.9188 109.429C29.9727 109.6 30.0168 109.774 30.0506 109.95C30.0871 110.137 30.1176 110.323 30.1399 110.506C30.1622 110.688 30.1784 110.865 30.1886 111.031C30.1987 111.198 30.1886 111.334 30.1886 111.437C30.3412 111.391 30.4861 111.323 30.6186 111.234C30.7434 111.14 30.8488 111.023 30.929 110.889C31.0033 110.773 31.0556 110.643 31.0831 110.508C31.1085 110.383 31.1085 110.255 31.0831 110.131C31.0585 110.006 31.0083 109.887 30.9357 109.782C30.8631 109.678 30.7697 109.589 30.6612 109.522C30.5536 109.456 30.4346 109.411 30.3103 109.388C30.1785 109.368 30.0436 109.382 29.9188 109.429Z" fill="black"/>
<path d="M24.4133 104.566L24.2612 104.737C24.091 104.698 23.929 104.629 23.7824 104.534L21.5227 107.045C21.577 107.119 21.6258 107.197 21.6687 107.279C21.7089 107.349 21.7429 107.423 21.7701 107.5L21.618 107.668L21.1027 107.206C21.0541 107.161 20.9892 107.106 20.9141 107.041L20.6727 106.838C20.5895 106.769 20.5064 106.704 20.4273 106.636C20.3481 106.567 20.2812 106.516 20.2244 106.469C19.9873 106.262 19.7858 106.017 19.628 105.745C19.4912 105.512 19.4067 105.253 19.3805 104.984C19.3589 104.721 19.397 104.456 19.4921 104.209C19.6048 103.926 19.77 103.665 19.9789 103.443C20.1809 103.213 20.4202 103.019 20.6869 102.869C20.9276 102.735 21.1953 102.659 21.4699 102.643C21.7572 102.632 22.0434 102.685 22.3077 102.798C22.6284 102.937 22.9227 103.131 23.1779 103.37C23.2165 103.404 23.2652 103.453 23.326 103.516L23.5289 103.719L23.7317 103.932C23.8007 104.002 23.8636 104.063 23.9204 104.114L24.4133 104.566ZM20.5469 106.248C20.5997 106.297 20.6544 106.343 20.7092 106.388C20.764 106.433 20.8147 106.469 20.8593 106.498L23.1718 103.932C23.1552 103.909 23.1361 103.888 23.115 103.869L23.0298 103.781L22.9426 103.696L22.8777 103.633C22.729 103.491 22.5447 103.392 22.3442 103.345C22.1603 103.309 21.9704 103.317 21.7904 103.37C21.5914 103.427 21.4045 103.52 21.2387 103.643C21.0481 103.781 20.8733 103.939 20.7173 104.114C20.5746 104.272 20.4513 104.446 20.3502 104.633C20.2514 104.806 20.1828 104.995 20.1473 105.191C20.1131 105.386 20.1311 105.587 20.1995 105.772C20.2679 105.958 20.3843 106.122 20.5368 106.248H20.5469Z" fill="black"/>
<path d="M12.5444 98.1624C12.6884 98.0569 12.8426 97.9595 13.0028 97.848C13.1631 97.7364 13.3193 97.6451 13.4694 97.57L13.6236 97.7607L13.2483 98.4159L13.9481 99.2841L15.0861 98.3673L14.6297 97.7993L14.1064 97.8845L13.9867 97.7364C14.1219 97.6012 14.2842 97.4571 14.4735 97.3043C14.6602 97.1542 14.8407 97.0223 15.0131 96.8986L15.1328 97.0487L14.9299 97.5477L15.3884 98.1157L16.5954 97.142L15.8651 96.2353L15.076 96.4645L14.9239 96.2738C14.9725 96.215 15.0293 96.1481 15.0922 96.071C15.1551 95.9939 15.2261 95.9249 15.2951 95.8539C15.3641 95.7829 15.4411 95.7119 15.5182 95.6511C15.5953 95.5902 15.6683 95.5192 15.7353 95.4644L17.7638 97.9778L17.5873 98.1198C17.511 98.0859 17.4365 98.048 17.3642 98.0062C17.2861 97.9608 17.2127 97.9078 17.1451 97.848L14.508 99.9678C14.5478 100.046 14.5831 100.127 14.6135 100.209C14.6442 100.29 14.6666 100.373 14.6804 100.459L14.504 100.601L12.5444 98.1624Z" fill="black"/>
<path d="M11.8648 90.6082C11.8819 90.5351 11.886 90.4595 11.877 90.385C11.8619 90.2784 11.8246 90.1761 11.7675 90.0848C11.6745 89.9115 11.5248 89.7755 11.3435 89.6994C11.2592 89.6657 11.168 89.6527 11.0777 89.6616C10.9873 89.6704 10.9004 89.7007 10.8242 89.7501C10.7044 89.8164 10.6155 89.9271 10.5767 90.0584C10.5361 90.203 10.5163 90.3525 10.5179 90.5027C10.5179 90.669 10.524 90.8435 10.5362 91.026C10.5483 91.2067 10.5422 91.3882 10.5179 91.5676C10.4963 91.7454 10.4412 91.9175 10.3556 92.0748C10.2557 92.2468 10.1095 92.3874 9.93369 92.4805C9.7853 92.5732 9.61709 92.6295 9.44279 92.6448C9.28686 92.656 9.13049 92.6303 8.98637 92.5697C8.83469 92.5028 8.69704 92.4079 8.58066 92.2898C8.44748 92.1613 8.33156 92.0161 8.23581 91.8577C8.12063 91.663 8.02092 91.4595 7.93762 91.2492C7.86477 91.0675 7.81502 90.8773 7.78954 90.6832C7.86054 90.6467 7.9437 90.6061 8.03702 90.5635C8.13033 90.5209 8.22567 90.4783 8.32101 90.4418C8.41635 90.4053 8.50966 90.3708 8.59486 90.3404C8.68006 90.31 8.75512 90.2876 8.81394 90.2714L8.93768 90.4743L8.37172 91.1254C8.37916 91.1997 8.39621 91.2726 8.42244 91.3425C8.45256 91.4351 8.49269 91.5242 8.54212 91.6082C8.61523 91.7421 8.73086 91.8477 8.87074 91.9084C8.93916 91.9352 9.01314 91.9446 9.08607 91.9357C9.15899 91.9269 9.22859 91.9001 9.28862 91.8577C9.41267 91.7886 9.50558 91.6747 9.54827 91.5392C9.59241 91.3911 9.61563 91.2374 9.61724 91.0828C9.61724 90.9145 9.61724 90.7359 9.60304 90.5473C9.5907 90.3619 9.59682 90.1757 9.6213 89.9915C9.64417 89.8148 9.69699 89.6433 9.77749 89.4843C9.8701 89.3123 10.0112 89.1713 10.1832 89.0786C10.3289 88.9819 10.4954 88.9208 10.6692 88.9003C10.8429 88.8799 11.019 88.9007 11.1833 88.961C11.5691 89.1401 11.8815 89.4467 12.0677 89.8292C12.1328 89.9402 12.1904 90.0554 12.2401 90.174C12.2904 90.2876 12.3337 90.4041 12.3699 90.523C12.4009 90.625 12.4266 90.7286 12.447 90.8333C12.4639 90.9064 12.4687 90.9818 12.4612 91.0564C12.374 91.1033 12.2838 91.1446 12.1914 91.1802C12.092 91.2208 11.9886 91.2593 11.8912 91.2958C11.7938 91.3323 11.6884 91.3688 11.6032 91.3993C11.518 91.4297 11.4287 91.4561 11.3577 91.4743L11.234 91.2715L11.8648 90.6082Z" fill="black"/>
<path d="M8.1141 81.918L8.82409 83.6381L8.62123 83.7233C8.4856 83.6174 8.36899 83.4891 8.27638 83.344L5.15448 84.6341C5.17557 84.7185 5.18781 84.8049 5.191 84.8918C5.19841 84.9768 5.19841 85.0623 5.191 85.1474L4.98814 85.2346L4.27613 83.5144L4.47898 83.4272C4.54875 83.4782 4.61269 83.5367 4.66967 83.6016C4.7267 83.6648 4.77828 83.7326 4.82383 83.8045L7.94371 82.5143C7.92826 82.4305 7.91743 82.3458 7.91125 82.2608C7.90103 82.1745 7.90103 82.0874 7.91125 82.0011L8.1141 81.918Z" fill="black"/>
<path d="M5.2194 73.4205C5.28789 73.5007 5.35091 73.5854 5.40805 73.674C5.47499 73.7775 5.5399 73.8769 5.6109 74.0006C5.67315 74.1146 5.72935 74.2317 5.77927 74.3516C5.82504 74.4561 5.863 74.5639 5.89287 74.6741C5.97313 74.9741 6.00531 75.2849 5.98821 75.595C5.97004 75.864 5.89319 76.1257 5.76304 76.3618C5.62679 76.5966 5.43792 76.7966 5.21128 76.946C4.94328 77.1217 4.64675 77.2494 4.33496 77.3233C4.00535 77.4168 3.65973 77.4396 3.3207 77.3903C3.04564 77.3472 2.78367 77.2432 2.55391 77.086C2.33809 76.9349 2.15578 76.7408 2.01838 76.516C1.87956 76.2904 1.77625 76.0448 1.71208 75.7878C1.65012 75.548 1.60672 75.3039 1.58225 75.0575C1.55817 74.8678 1.56296 74.6757 1.59645 74.4875C1.65528 74.4712 1.73033 74.457 1.82162 74.4388L2.12184 74.3901C2.22732 74.3759 2.32469 74.3637 2.44437 74.3556C2.56406 74.3475 2.64723 74.3434 2.74257 74.3434L2.80342 74.5808L2.00621 75.1285C1.99624 75.1957 1.99624 75.2641 2.00621 75.3313C2.01822 75.4181 2.03515 75.5041 2.05693 75.589C2.09458 75.7452 2.16359 75.8922 2.25978 76.021C2.36568 76.1585 2.50548 76.2662 2.66548 76.3334C2.8575 76.4176 3.06442 76.4624 3.27404 76.4653C3.54805 76.4695 3.82126 76.4346 4.08545 76.3618C4.32325 76.3054 4.55199 76.2159 4.76501 76.0961C4.94592 75.9949 5.1079 75.8632 5.24374 75.7066C5.35914 75.5654 5.44223 75.4006 5.48716 75.2238C5.53404 75.0504 5.53404 74.8677 5.48716 74.6944C5.47204 74.6339 5.45168 74.5748 5.42631 74.5179C5.40294 74.462 5.37583 74.4078 5.34517 74.3556C5.31943 74.3102 5.29027 74.2668 5.25794 74.2258C5.23639 74.1994 5.21188 74.1756 5.18491 74.1548L4.09762 74.4307C4.11369 74.5292 4.11778 74.6293 4.10979 74.7289C4.10201 74.822 4.0864 74.9142 4.06314 75.0047L3.84406 75.0615L3.43835 73.4813L3.65743 73.4266C3.70602 73.4579 3.74976 73.4961 3.78726 73.5401C3.83895 73.6016 3.88195 73.6698 3.91505 73.743L5.2194 73.4205Z" fill="black"/>
<path d="M0.12374 65.4869L0 64.0122L0.231253 63.9919C0.298394 64.0649 0.358184 64.1444 0.409762 64.2292C0.45845 64.3081 0.500518 64.3909 0.535531 64.4767L4.27613 64.1582L4.31873 64.6633L1.4646 67.0103L1.02643 67.2862V67.3126L1.49705 67.2193L3.97591 67.0164C3.99263 66.9235 4.01845 66.8324 4.05299 66.7446C4.0851 66.655 4.12445 66.5681 4.17065 66.4849L4.39784 66.4667L4.52158 67.9353L4.29642 67.9536C4.23971 67.883 4.18819 67.8084 4.14225 67.7304C4.09308 67.649 4.051 67.5635 4.01648 67.4748L0.77084 67.7507C0.744469 67.8319 0.71607 67.913 0.683614 67.9962C0.653464 68.0738 0.617525 68.1491 0.576101 68.2214L0.350936 68.2396L0.241395 66.9555L2.57014 65.0386L3.05902 64.7221V64.6755L2.55189 64.7505L0.570016 64.9169C0.546576 65.0146 0.515373 65.1102 0.476704 65.2029C0.443877 65.2897 0.401706 65.3727 0.350936 65.4504L0.12374 65.4869Z" fill="black"/>
<path d="M0.237338 54.9954C0.41382 55.0177 0.598415 55.044 0.787068 55.0785C0.975721 55.113 1.1522 55.1516 1.31651 55.1962L1.29826 55.4396L0.576101 55.6607L0.492932 56.7744L1.95144 56.8839L2.00621 56.1557L1.56602 55.8595L1.58022 55.6688C1.79744 55.6633 2.01481 55.6694 2.23138 55.6871C2.46872 55.7053 2.69185 55.7317 2.89673 55.7662L2.88253 55.9569L2.39163 56.1841L2.33078 56.9123L3.87854 57.0259L3.96374 55.8656L3.23144 55.4944L3.2497 55.251C3.32678 55.2408 3.41198 55.2307 3.50935 55.2226C3.60672 55.2144 3.7122 55.2063 3.80551 55.2043H4.11385C4.2173 55.2043 4.3167 55.2043 4.4019 55.2165L4.16253 58.4357L3.9536 58.4195C3.92095 58.3436 3.89317 58.2657 3.87043 58.1862C3.84353 58.0991 3.82585 58.0093 3.81769 57.9185L0.448305 57.669C0.424904 57.7533 0.39576 57.836 0.361078 57.9164C0.329242 57.9965 0.288409 58.0727 0.239366 58.1436L0.0142004 58.1274L0.237338 54.9954Z" fill="black"/>
<path d="M5.11797 48.4757C5.15464 48.3985 5.1988 48.3251 5.24982 48.2566C5.29716 48.1944 5.34381 48.1335 5.38979 48.074L5.6109 48.1268L5.191 49.9159L4.96786 49.8673C4.94228 49.7792 4.9253 49.6888 4.91715 49.5975C4.91715 49.5143 4.91715 49.4331 4.91715 49.352L1.62891 48.5791C1.55612 48.7367 1.46192 48.8835 1.34897 49.0153L1.12786 48.9646L1.27189 48.356C1.29014 48.2789 1.3084 48.1897 1.32868 48.0903L1.38751 47.7758C1.40577 47.6663 1.42605 47.5547 1.44634 47.4411C1.46662 47.3275 1.49097 47.218 1.51531 47.1125C1.5567 46.9135 1.62494 46.7211 1.71816 46.5405C1.80079 46.3855 1.91234 46.2478 2.04678 46.1348C2.17237 46.0281 2.32206 45.9536 2.48292 45.9177C2.65997 45.8804 2.84327 45.8846 3.01845 45.9299C3.26641 45.9779 3.49168 46.1062 3.65946 46.295C3.8107 46.4823 3.90504 46.7089 3.93128 46.9482C4.20919 46.8488 4.49724 46.7454 4.78935 46.6277C5.08146 46.51 5.36951 46.3863 5.64944 46.2484L5.89895 46.011L6.1018 46.0577L5.87461 47.0293L5.6251 47.2322C5.35594 47.3652 5.07201 47.466 4.77921 47.5324C4.46681 47.6034 4.17065 47.6602 3.87043 47.7028L3.75074 48.1572L5.11797 48.4757ZM1.83987 47.3985C1.81345 47.4963 1.80183 47.5975 1.80539 47.6988L3.42821 48.0781L3.50935 47.7332C3.5329 47.6389 3.53696 47.5408 3.52126 47.4449C3.50556 47.349 3.47045 47.2573 3.41807 47.1754C3.34865 47.0813 3.2613 47.0018 3.16103 46.9415C3.06076 46.8813 2.94957 46.8415 2.83385 46.8245C2.70968 46.7909 2.58026 46.7813 2.45249 46.7961C2.34837 46.8072 2.24832 46.8427 2.16038 46.8995C2.07937 46.9523 2.01027 47.0214 1.95753 47.1024C1.90313 47.1944 1.86343 47.2943 1.83987 47.3985Z" fill="black"/>
<path d="M8.82212 33.9554C8.7641 33.9279 8.71258 33.8883 8.67097 33.8393C8.62936 33.7904 8.5986 33.7332 8.58073 33.6715C8.56419 33.6071 8.56051 33.5401 8.56991 33.4743C8.57931 33.4085 8.6016 33.3452 8.6355 33.2881C8.6974 33.1673 8.80347 33.075 8.93166 33.0304C9.0554 32.9931 9.18889 33.0063 9.30293 33.0671C9.41697 33.1279 9.50229 33.2315 9.54022 33.355C9.56945 33.4872 9.54772 33.6256 9.47936 33.7425C9.42161 33.8623 9.3199 33.9553 9.19537 34.0021C9.13351 34.022 9.06806 34.0281 9.00359 34.02C8.93912 34.012 8.87719 33.9899 8.82212 33.9554Z" fill="black"/>
<path d="M98.3347 59.1234C96.7708 55.685 94.0079 52.9161 90.7623 51.0336C86.9872 48.8428 82.6482 47.788 78.3315 47.4087C76.1213 47.2183 73.899 47.2136 71.688 47.3945C73.2135 44.9156 74.7653 42.455 76.4307 40.0694C77.1691 39.0106 77.9562 37.9375 78.6621 37.0429C79.4309 36.0773 80.2342 35.1381 81.0963 34.2496C81.88 33.431 82.7184 32.6665 83.6056 31.9614L83.7598 31.8438L84.0458 31.6409C84.273 31.4786 84.5043 31.3204 84.7396 31.1683C85.1573 30.8983 85.5886 30.6498 86.0317 30.4238C86.2488 30.3143 86.4699 30.2108 86.691 30.1114L86.7174 30.1013L86.8391 30.0526C86.9709 30.0019 87.1028 29.9491 87.2346 29.9025C87.6905 29.7368 88.1567 29.6013 88.6303 29.4968C88.8331 29.4521 89.036 29.4177 89.2388 29.3852L89.464 29.3568L89.8514 29.3244C90.6141 29.2605 91.3821 29.3291 92.1214 29.5272C92.7982 29.7296 93.4162 30.0921 93.9233 30.584C94.4303 31.0758 94.8114 31.6826 95.0343 32.3529C95.2465 32.8864 95.3426 33.459 95.3163 34.0326C95.2582 34.7252 95.0461 35.396 94.6956 35.9962C93.8842 37.4364 92.4642 38.4669 90.7744 38.4892C89.6324 38.5055 89.6283 40.2824 90.7744 40.2662C94.442 40.2175 97.5477 36.6433 97.0142 33C96.8047 31.4972 96.0738 30.1158 94.9491 29.0972C93.5697 27.8963 91.7826 27.4561 89.9813 27.5474C85.5834 27.7746 81.9544 30.6246 79.1124 33.7648C75.4611 37.8016 72.5928 42.5199 69.7549 47.1531C69.6534 47.3194 69.552 47.4857 69.4485 47.6541C68.9171 47.7231 68.3856 47.8002 67.8561 47.8894C64.8783 48.3925 61.7483 49.2668 58.9428 50.6665C61.2939 46.4735 62.1884 41.4772 60.2167 36.9333C57.4133 30.4806 49.6684 28.7036 43.3333 30.1337C35.9617 31.7971 29.6428 37.2741 25.9103 43.7086C21.8208 50.7598 20.2467 60.0119 23.8818 67.5661C25.5492 71.0288 28.3182 74.0229 31.793 75.7086C35.1158 77.3314 38.83 77.6783 42.4489 77.0961C47.8143 76.234 52.4596 73.0857 56.2428 69.3066C60.448 65.0994 63.8072 60.0971 66.9656 55.0846C68.1726 53.1697 69.3471 51.2304 70.5257 49.2952C71.7428 49.1633 72.9701 49.0923 74.2176 49.0639C78.2747 48.9868 82.4027 49.5183 86.2326 50.9058C89.6608 52.1493 92.9409 54.2286 95.1114 57.1841C97.3428 60.2269 98.3165 63.933 98.2009 67.7C97.9392 76.2198 91.6325 82.987 84.4799 86.8452C80.7076 88.8838 76.5993 90.2271 72.3514 90.811C70.151 91.1265 67.9211 91.181 65.7079 90.9733C63.2737 90.7258 60.8801 90.0827 58.5696 89.2876C55.827 88.3443 53.1919 87.1475 50.5772 85.906C51.9099 84.6889 53.1838 83.3927 54.4111 82.066C59.3587 76.7168 63.6307 70.7955 68.0022 64.9838C69.8279 62.5496 71.6049 60.2046 73.6435 57.884C74.438 56.9671 75.2817 56.0943 76.1711 55.2692C76.3455 55.111 76.524 54.9527 76.7046 54.8006C76.7979 54.7195 76.8932 54.6403 76.9906 54.5633L77.1326 54.4517L77.1508 54.4355L77.1853 54.4091C77.5459 54.1392 77.9233 53.8926 78.3152 53.6707C78.4674 53.5855 78.6256 53.5125 78.7838 53.4354L78.8731 53.4009C78.9562 53.3705 79.0374 53.3421 79.1205 53.3157C79.2808 53.265 79.4431 53.2366 79.6054 53.1981H79.6459C79.723 53.1981 79.8001 53.1981 79.8772 53.1981C81.0192 53.1981 81.0233 51.413 79.8772 51.419C78.0211 51.4332 76.376 52.7153 75.0594 53.8918C73.106 55.6404 71.4324 57.7014 69.8076 59.7502C65.4057 65.3023 61.3669 71.1282 56.8433 76.587C54.5664 79.3853 52.1087 82.0314 49.4858 84.5083C49.2735 84.7044 49.0592 84.8999 48.8428 85.0946C47.6825 84.5388 46.5222 83.983 45.3517 83.4474C41.7916 81.7698 37.9922 80.0923 33.9757 80.9321C31.9472 81.352 30.0059 82.4372 28.8456 84.2C27.6853 85.9628 27.456 88.3362 28.4926 90.1781C30.4867 93.728 35.1705 93.9674 38.686 93.0931C41.6172 92.3628 44.3171 90.8434 46.7372 89.0685C47.5668 88.4599 48.36 87.8148 49.1531 87.1495C51.3845 88.2185 53.6321 89.2713 55.9426 90.1801C60.4926 91.9672 65.2231 93.0992 70.1423 92.7847C74.6253 92.4761 79.0158 91.3608 83.1025 89.4924C90.7176 86.0439 97.8195 79.6683 99.5762 71.189C100.406 67.1685 100.041 62.8741 98.3347 59.1234ZM59.9591 62.2412C56.7601 66.5011 52.9323 70.6941 48.1937 73.2399C46.028 74.4057 43.6645 75.1588 41.2236 75.4611C37.6494 75.8425 34.065 75.1812 31.0303 73.1973C27.9307 71.1688 25.7014 67.9637 24.5674 64.4625C23.3321 60.6428 23.4396 56.5248 24.3098 52.6362C25.9996 45.084 30.864 38.2519 37.5642 34.3389C40.3879 32.6897 43.6092 31.5476 46.8406 31.4198C50.0335 31.294 53.482 32.0142 55.896 34.0265C56.9814 34.9125 57.8583 36.0269 58.4641 37.2904C59.0277 38.4946 59.3771 39.7879 59.4966 41.1121C59.7522 44.2016 58.9063 47.2464 57.3504 49.9504C56.652 51.1564 55.8272 52.2845 54.8898 53.3157C53.1043 54.8036 51.7053 56.7016 50.8125 58.8475C50.1304 60.5776 49.7861 62.4223 49.7982 64.2819C49.7982 65.426 51.5712 65.428 51.5752 64.2819C51.5874 60.9328 52.7802 57.8961 55.0724 55.537C55.2036 55.4911 55.3223 55.4154 55.4193 55.3158C55.6688 55.0663 55.9102 54.8087 56.1475 54.545C58.4844 52.5895 61.3933 51.3237 64.3285 50.488C65.6198 50.1165 66.931 49.8178 68.2558 49.5934C65.641 53.8979 62.9836 58.2045 59.9591 62.2412ZM41.7531 90.0604C41.1616 90.3612 40.5518 90.6248 39.9274 90.8495C39.2598 91.0968 38.5768 91.3001 37.8827 91.4581C37.5682 91.5291 37.2538 91.5899 36.9353 91.6406L36.7954 91.6609L36.6371 91.6833C36.4343 91.7035 36.2517 91.7238 36.059 91.738C35.1772 91.8252 34.287 91.7718 33.4219 91.5798C31.5963 91.1355 29.6773 89.8576 29.6124 87.8007C29.5576 86.0074 30.5455 84.4374 32.0912 83.5245C35.5864 81.4575 39.4852 82.778 42.9093 84.2528C44.4247 84.9059 45.9156 85.6078 47.4046 86.3158C45.6719 87.7783 43.7754 89.035 41.7531 90.0604Z" fill="black"/>
</svg>
