<?xml version="1.0" encoding="utf-8"?>
<!-- Generator: Adobe Illustrator 22.0.1, SVG Export Plug-In . SVG Version: 6.00 Build 0)  -->
<svg version="1.1" id="Layer_1" xmlns="http://www.w3.org/2000/svg" xmlns:xlink="http://www.w3.org/1999/xlink" x="0px" y="0px"
	 viewBox="0 0 125.4 106.1" style="enable-background:new 0 0 125.4 106.1;" xml:space="preserve">
<path d="M121.4,50.4c-2.4-5.4-6.8-9.7-11.8-12.6c-5.9-3.4-12.7-5.1-19.4-5.7c-3.5-0.3-6.9-0.3-10.4,0c2.4-3.9,4.8-7.7,7.4-11.4
	c1.2-1.6,2.4-3.3,3.5-4.7c1.2-1.5,2.5-3,3.8-4.4c1.2-1.3,2.5-2.5,3.9-3.6c0,0,0,0,0,0c0.1-0.1,0.2-0.1,0.2-0.2
	c0.1-0.1,0.3-0.2,0.4-0.3c0.4-0.3,0.7-0.5,1.1-0.7c0.7-0.4,1.3-0.8,2-1.2c0.3-0.2,0.7-0.3,1-0.5c0,0,0,0,0,0c0,0,0,0,0,0
	c0.1,0,0.1-0.1,0.2-0.1c0.2-0.1,0.4-0.2,0.6-0.2c0.7-0.3,1.4-0.5,2.2-0.6c0.3-0.1,0.6-0.1,1-0.2c0.1,0,0.3,0,0.4,0
	c0.2,0,0.4,0,0.6-0.1c1.2-0.1,2.4,0,3.5,0.3c2.3,0.7,3.9,2.4,4.5,4.4c0.4,1.1,0.5,1.6,0.4,2.6c0,0.9-0.4,2.1-1,3.1
	c-1.3,2.2-3.5,3.9-6.1,3.9c-1.8,0-1.8,2.8,0,2.8c5.7-0.1,10.6-5.7,9.7-11.3c-0.3-2.3-1.5-4.6-3.2-6.1c-2.2-1.9-4.9-2.6-7.8-2.4
	c-6.9,0.4-12.5,4.8-17,9.7c-5.7,6.3-10.2,13.7-14.6,20.9c-0.2,0.3-0.3,0.5-0.5,0.8c-0.8,0.1-1.7,0.2-2.5,0.4
	c-4.6,0.8-9.5,2.1-13.9,4.3c3.7-6.5,5.1-14.3,2-21.4C57.6,5.7,45.5,2.9,35.6,5.2C24.1,7.8,14.2,16.3,8.4,26.4
	C2,37.4-0.4,51.8,5.2,63.6c2.6,5.4,6.9,10.1,12.3,12.7c5.2,2.5,11,3.1,16.6,2.2c8.4-1.3,15.6-6.3,21.5-12.2
	c6.6-6.6,11.8-14.4,16.7-22.2c1.9-3,3.7-6,5.6-9c1.9-0.2,3.8-0.3,5.8-0.4c6.3-0.1,12.8,0.7,18.7,2.9c5.4,1.9,10.5,5.2,13.9,9.8
	c3.5,4.8,5,10.5,4.8,16.4c-0.4,13.3-10.3,23.9-21.4,29.9c-5.9,3.2-12.3,5.3-18.9,6.2c-3.4,0.5-6.9,0.6-10.4,0.3
	c-3.8-0.4-7.5-1.4-11.1-2.6c-4.3-1.5-8.4-3.3-12.5-5.3c2.1-1.9,4.1-3.9,6-6c7.7-8.3,14.4-17.6,21.2-26.7c2.9-3.8,5.6-7.5,8.8-11.1
	c1.2-1.4,2.5-2.8,3.9-4.1c0.3-0.2,0.6-0.5,0.8-0.7c0.1-0.1,0.3-0.2,0.4-0.4c0.1-0.1,0.1-0.1,0.2-0.2c0,0,0,0,0,0c0,0,0,0,0.1,0
	c0.6-0.4,1.1-0.8,1.8-1.2c0.2-0.1,0.5-0.2,0.7-0.4c0,0,0.1,0,0.1-0.1c0.1,0,0.3-0.1,0.4-0.1c0.2-0.1,0.5-0.1,0.8-0.2c0,0,0,0,0,0
	c0,0,0,0,0,0c0.1,0,0.2,0,0.4,0c1.8,0,1.8-2.8,0-2.8c-2.9,0-5.5,2-7.5,3.9c-3,2.7-5.7,5.9-8.2,9.1C70,60,63.7,69.1,56.7,77.6
	C53.1,82,49.3,86.2,45.2,90c-0.3,0.3-0.7,0.6-1,0.9c-1.8-0.9-3.6-1.7-5.4-2.6c-5.6-2.6-11.5-5.2-17.8-3.9c-3.2,0.7-6.2,2.4-8,5.1
	c-1.8,2.7-2.2,6.5-0.6,9.3c3.1,5.5,10.4,5.9,15.9,4.5c4.6-1.1,8.8-3.5,12.6-6.3c1.3-1,2.5-2,3.8-3c3.5,1.7,7,3.3,10.6,4.7
	c7.1,2.8,14.5,4.6,22.2,4.1c7-0.4,13.8-2.3,20.2-5.1c11.9-5.4,23-15.3,25.7-28.6C124.6,63,124.1,56.3,121.4,50.4z M98.5,8
	C98.5,8,98.6,7.9,98.5,8L98.5,8z M61.5,55.3c-5,6.6-11,13.2-18.4,17.2c-3.3,1.8-7.3,3.1-10.9,3.5c-5.6,0.6-11.2-0.4-15.9-3.5
	C11.5,69.3,8,64.2,6.3,58.8c-1.9-6-1.8-12.4-0.4-18.5c2.6-11.8,10.2-22.4,20.7-28.6C31,9.2,36,7.4,41,7.2c5-0.2,10.4,0.9,14.1,4.1
	c1.8,1.5,3,3,4,5.1c0.9,1.7,1.5,4,1.6,6c0.4,4.8-0.9,9.6-3.4,13.8c-1.1,1.9-2.4,3.6-3.8,5.2c-2.7,2.3-4.9,5.2-6.4,8.6
	c-1.1,2.7-1.6,5.6-1.6,8.5c0,1.8,2.8,1.8,2.8,0c0-5.2,1.9-10,5.5-13.6c0.2-0.1,0.4-0.2,0.5-0.3c0.4-0.4,0.8-0.8,1.1-1.2
	c3.6-3.1,8.2-5,12.8-6.3c2-0.6,4.1-1,6.1-1.4C70.4,42.3,66.2,49,61.5,55.3z M33.1,98.7c-1.1,0.5-1.8,0.8-2.8,1.2
	c-1,0.4-2.1,0.7-3.2,0.9c-0.5,0.1-1,0.2-1.5,0.3c-0.1,0-0.1,0-0.2,0c0,0-0.2,0-0.2,0c-0.3,0-0.6,0.1-0.9,0.1
	c-1.4,0.1-2.8,0.1-4.1-0.2c-2.8-0.7-5.8-2.7-5.9-5.9c-0.1-2.8,1.5-5.2,3.9-6.7c5.5-3.2,11.5-1.2,16.9,1.1c2.4,1,4.7,2.1,7,3.2
	C39.2,95.1,36.3,97.1,33.1,98.7z"/>
</svg>
