<?xml version="1.0" encoding="utf-8"?>
<!-- Generator: Adobe Illustrator 22.0.1, SVG Export Plug-In . SVG Version: 6.00 Build 0)  -->
<svg version="1.1" id="Layer_1" xmlns="http://www.w3.org/2000/svg" xmlns:xlink="http://www.w3.org/1999/xlink" x="0px" y="0px"
	 viewBox="0 0 1286 444" style="enable-background:new 0 0 1286 444;" xml:space="preserve">
<style type="text/css">
	.st0{fill:#FFFFFF;}
</style>
<g>
	<path class="st0" d="M472.8,266.6c1.5,0.8,5.8-4.6,8.5-7.1c4.3-3.9,8.2-8.2,12.6-11.9c9-7.6,20.1-9.2,28.2-3.8
		c3.1,2.1,5.7,4.9,8.2,7.7c4.3,4.6,8.5,9.2,12.4,14.1c1.2,1.5,1.3,3.9,2,5.9c-2.2,0.5-4.6,1.9-6.5,1.3c-2.7-0.9-5.3-2.8-7.3-4.9
		c-3.9-3.9-7.5-8.1-11.2-12.3c-3-3.4-6.9-4-10.6-2c-3.9,2.2-7.7,4.8-10.9,7.9c-5.5,5.4-10.3,11.3-15.6,16.9c-2,2.1-4.1,4.2-6.6,5.5
		c-2.2,1.1-5,1.6-7.5,1.5c-7.5-0.2-20.3-14.7-16.9-24.2c1.7-4.7,3.3-9.4,5.1-14.8c-3.1,2.7-5.9,5.2-8.7,7.5
		c-9.8,8.3-19.6,16.5-29.5,24.7c-2.3,1.9-4.9,3.6-7.5,5c-7.5,4.1-15.1,3.3-21.8-2.2c-7.3-6.9-3.4-27-2.3-34.8
		c0.1-0.7,0.3-1.5,0.7-2.8c-2.4,0.5-4.4,0.9-6.3,1.5c-9.8,3.1-19.6,6.2-29.4,9.4c-2.5,0.8-3.6,2-3,5.3c3,16.4,1.5,32.8-1.5,49.1
		c-5.1,27.2-12,53.9-20.5,80.3c-0.9,2.8-2.6,3-4.8,2.9c-14.9-0.7-24.9-10.5-26.6-25.7c-3.9-35.2-3.6-70.5-1.4-105.8
		c0.5-8.3,1.6-16.5,2.5-25c-7.8,3.8-15.2,7.4-22.8,11.2c1.1,13.9-1.4,27.6-6.3,41c-1,2.7-2.3,5.3-3.9,7.7c-3.7,5.6-8,6.8-14.4,4.5
		c-12.6-4.6-20.8-16.1-20.6-29.5c0.1-6.2,0.8-12.5,1.3-19.4c-14.7,5.8-27.1,14.4-39.7,23.2c1.5,2.7,2.9,5.2,4.2,7.7
		c15.5,28.6,4.3,59.9-24.5,72.6c-46.3,16.1-62.2-1.3-58.3-20.8c5.3-26.4,37.1-46.1,48.1-54.9c-0.8-1.2-1.7-2.9-2.9-4.5
		c-19.5-25.3-39.1-50.5-58.6-75.8C88,185.6,78,172.2,70.8,156.9c-3.4-7.3-5.6-14.7-4.4-23c1.5-10.5,6.3-18.8,15.2-24.5
		c23.7-15.2,63.2-12.4,82.5,15.1c13.1,18.6,13.5,38.9,4.3,59.5c-2.3,5.2-5.7,6.7-9.8,5.3c-5.7-2-9.2-7-7.9-12
		c0.9-3.5,2.7-6.7,3.8-10.2c2-6.1,4.2-12.1,5.4-18.4c1.5-7.1-0.3-13.9-4-20.3c-10-17.1-32.1-25.8-50.5-19.7
		c-0.6,0.2-1.2,0.4-1.8,0.6c-12.1,4.9-15.9,12.2-11.4,24.4c2.5,6.9,6,13.7,10.2,19.7c18.3,25.9,36.9,51.5,55.6,77.1
		c7.3,10.1,15.2,19.7,22.6,29.7c2,2.7,3.9,3.2,6.9,1.6c14.7-7.7,29.6-15,44.1-23.1c5.2-2.9,9.6-7.4,15.9-8.1
		c2.6-0.3,5.2-0.7,7.9-0.7c4.1,0,7.6,1.6,9.8,5.3c1.8,3.1,4.4,4.2,7.6,2.7c7.7-3.6,15.4-7.2,22.8-11.4c1.6-0.9,2.3-4.2,2.7-6.5
		c3.9-23.8,7.2-47.7,11.6-71.4c1.6-8.5,5.5-16.6,9-24.7c1.7-3.8,4.4-7.4,7.4-10.3c7.1-7,16.8-6.7,23.9,0.2c6.4,6.2,9,14.1,9.9,22.7
		c3,26.6-6.3,49.1-23.3,69c-4.1,4.8-8.4,9.4-12.2,14.4c-1.5,2-2.7,4.6-3,7.1c-3.3,34.1-5.5,68.2-3.9,102.4c0.4,8.5,1,17.1,1.6,25.6
		c0.2,2.3,1.1,4.5,2.5,6.9c1.1-2.4,2.3-4.8,3.3-7.3c9-23.4,15.6-47.5,18.7-72.4c0.6-5.2,0.3-10.5-0.2-15.8
		c-0.6-6.4-3.7-10.9-10.2-13.2c-5.3-1.8-6.5-4.4-5.1-8c1-2.4,2.6-3.4,5.1-2.5c1.4,0.5,2.9,1,4.1,1.9c4.4,3.4,9.3,3.5,14.3,1.9
		c11.8-3.7,23.6-7.9,35.5-11.3c6-1.7,12.3-2.6,18.5-2.9c6.7-0.3,8.7,2.9,7,9.4c-2,7.5-9.5,28.9-4.6,31.3
		c5.6,2.7,22.6-15.6,30.7-22.3c11.2-9.3,22.3-18.8,34-27.6c9.4-7.1,20.6-8.2,32-7.2c3.6,0.3,6,4.3,5.9,8.5c-0.2,4-1.7,5.6-6,6.3
		c-0.2,0-0.5,0.1-0.7,0.1c-6.5-0.2-12.5,1-17.4,5.6c-6.6,6.2-11.3,13.4-13.8,22.1C472.3,261,471.3,265.8,472.8,266.6z M166.3,291.5
		c-15,9.4-42.5,32.2-41.9,45.6c0.6,12.9,32.3,16.3,45.7-21.5C172.1,307.4,170.5,299.5,166.3,291.5z M324.7,208.9
		c1.3-1.1,1.8-1.5,2.2-2c16-17.3,25.8-37.3,25.8-61.3c0-7.7-0.9-15.3-4.7-22.3c-2.1-3.8-4-3.8-6.1,0c-1.1,2-2,4.1-2.7,6.2
		C331.1,155.1,328.9,181.7,324.7,208.9z M250.8,289.3c10.8-7.2,18.5-36,12.1-44.6c-0.5,0.4-1,0.8-1.4,1.3
		c-7.9,11.9-11.8,25-12.2,39.2C249.3,286.5,250.3,287.9,250.8,289.3z"/>
	<path class="st0" d="M1095,230.5c6.3-6.5,12-13.2,18.6-19c8.1-7.2,17.5-12.1,28.7-11.1c3.9,0.3,8.1,2.1,11.3,4.4
		c6.1,4.4,7.1,10.8,3.5,17.4c-4.8,8.7-11.9,15.3-19.8,21c-8.7,6.2-24.3,18.4-35.8,20.1c25,11.7,57.8-6.6,67.9-13.9
		c3.5-2.6,5.1-5.7,5.7-10c0.7-5.1,1.7-10.2,3.5-15c3-8.1,8.8-10.8,16.7-8.6c7.7,2.1,11,7.3,9.5,15.9c-1.1,6.2-3.1,12.2-4.5,18.3
		c-0.9,3.7-1.8,7.3-2.3,11.1c-1.1,7.7,2.6,13.1,10.2,14.7c3.8,0.8,7.7,1,11.6,1.4c0.6,3.2-1.3,4.3-3.9,4.8
		c-10.2,1.7-18.8-2.1-26.7-7.9c-6.5-4.8-10.6-11.6-14.1-19.2c-3.1,2.4-6,4.7-9,6.9c-14.2,10.3-29.7,17.6-47.4,17.9
		c-18.1,0.3-28.3-15.9-28.3-14.3c-0.1,7.3,0,14.5,0.4,21.8c0.3,5.7-0.2,6.6-5.8,6.2c-7.1-0.4-12-4.5-14.1-10.8
		c-2.1-6.1-2.9-12.7-3.8-19.1c-0.7-5.5-0.7-11-1-17.4c-1.7,1.6-3.1,2.6-4.3,4c-8.1,9.1-16,18.4-24.1,27.5c-1.4,1.6-3.1,3-4.9,4.2
		c-5.3,3.7-11,1.9-12.6-4.4c-1.7-6.3-2.6-12.8-3.9-19.2c-0.5-2.4-1-4.8-1.7-7.9c-4.7,5.3-8.8,10-13,14.6c-5.5,6.1-11.1,12-16.5,18.1
		c-2.4,2.7-5.1,3.1-8.5,2.1c-12.4-3.9-17.6-12.1-15.9-25.4c0.3-2.5,0.6-4.9,1-8.2c-1.4,1.1-2.3,1.7-3.1,2.4
		c-5.7,5.2-11.1,10.6-17,15.4c-3.8,3.1-4.9,6.7-5,11.3c-0.7,37.5-10.9,72.1-31.4,103.6c-5.6,8.6-12.1,16.1-21.6,20.5
		c-11.1,5.2-23.4,3.1-30.3-5.3c-5-6.1-5.9-13.5-5.6-21c0.4-11.1,4-21.4,9-31.3c12.9-25.8,29.8-48.7,52.5-66.7
		c5.5-4.4,6-9.7,5.8-15.7c-0.1-2.5-1.3-3.9-3.9-2.7c-6.1,2.6-12.2,5.2-18.2,8.1c-3.1,1.4-5.9,3.3-8.9,4.9c-4.1,2.3-8.2,2.3-12.2-0.1
		c-5.6-3.3-9.3-8.2-10.4-14.6c-0.3-2.1,0.8-5.2,2.4-6.6c6-5.3,12.5-10.1,18.9-14.9c3.5-2.7,7.2-5,10.7-7.7c2.1-1.6,4.2-3.3,5.8-5.4
		c1-1.2,1.1-3.2,1.6-4.8c-1.9-0.1-4.2-0.9-5.5-0.1c-8.3,5.4-16.7,10.7-24.6,16.8c-18.2,14.1-36.1,28.6-54.2,42.8
		c-4.3,3.4-9.1,6.2-13.9,9c-4,2.4-8.2,1.7-11.5-1.4c-2.8-2.7-5.7-5.5-7.5-8.8c-9.9-18.7-9-37.1,2.9-54.5
		c9.6-14.2,32.9-21.8,49.3-16.7c0.7,0.2,1.4,0.5,2.1,0.8c11.4,4.7,14.2,13.5,7.1,23.5c-8.8,12.6-21.3,20.8-34.6,27.9
		c-3.1,1.6-6.2,3.3-9.5,4.6c-3.2,1.2-4.2,3.3-3.5,6.4c0.3,1.2,0.3,2.5,0.8,3.7c2.2,6.3,3.1,5.6,7.1,2.4
		c22.7-17.9,45.4-35.8,68.3-53.5c6.7-5.2,13.8-10.2,21.1-14.4c9.2-5.3,16.4-3.7,23.5,4.2c10.3,11.4,9.2,19.9-3.8,28.4
		c-5.5,3.6-11.1,7.2-17.4,11.2c8-2.2,15.1-4.2,22.2-6.1c0.8-0.2,1.7-0.3,2.6-0.4c10.4-1.1,12.4,0.3,15,10.5c0.2,0.6,0.4,1.2,0.7,2.2
		c12.7-9.9,26.7-17.9,34-33.2c4.7-10,12.4-17.1,23.7-19.2c8.3-1.5,16.4-0.5,23.2,5c1.4,1.2,3.1,3.3,2.9,4.8
		c-0.1,1.2-2.7,2.4-4.4,3.2c-5.2,2.2-10.8,3.6-15.6,6.4c-10.2,6-16.5,21.5-13.4,32.6c1.6-1.2,3.1-2.3,4.3-3.5c5-4.8,9.9-9.7,15-14.3
		c1.9-1.7,4.3-3.1,6.6-4.3c6.6-3.5,11.6-2.3,15.2,4.4c2.2,4.3,2,24.9,3.4,27.4c2.3,4.1,26.4-26.4,33-33.7c2.6-3.7,2.9-7.9,4.4-14.9
		c5.3-24.9,10.9-49.8,16.8-74.6c5.1-21.4,10.9-42.6,19.2-63c3.7-9.2,8.6-17.6,16.8-23.7c5.8-4.3,12.1-7.1,19.5-6.9
		c7.1,0.2,11.9,3.5,14.2,10.2c4.1,12,3.5,24.3,1.8,36.6c-5.8,43.5-24.6,80.7-54.5,112.4C1097.9,216.5,1096.2,223.2,1095,230.5z
		 M1102.2,196.9c0.4,0.1,0.7,0.2,1.1,0.4c2.4-3.1,4.8-6.1,7.1-9.2c20.6-27.9,36.2-58.1,40.8-93.1c1-8,2-16-0.4-23.9
		c-1.5-4.8-4.1-5.5-7-1.5c-3.4,4.7-6.6,9.8-8.8,15.2c-11,27.2-19.5,55.1-26.3,83.6C1106.4,177.8,1104.3,187.4,1102.2,196.9z
		 M911.9,293.4c-0.4-0.3-0.9-0.5-1.3-0.8c-5.2,5.4-10.8,10.4-15.4,16.2c-12.8,16.2-23.1,34.1-31.9,52.8c-3.8,8.1-6,16.8-4.8,25.9
		c1,7.6,5.3,9.6,10.9,4.3c5-4.7,9.9-10.2,13.1-16.3c10.7-20.2,19-41.5,25-63.7C909.1,305.8,910.4,299.5,911.9,293.4z M798.1,256.1
		c11.3-4.6,21.2-10.8,30.6-18c3.4-2.6,6.6-5.5,9.4-8.6c1.2-1.3,2.4-4.2,1.7-5.1c-1-1.4-3.5-2.4-5.4-2.4c-5.5-0.1-10.6,2.2-14.3,6
		c-6.1,6.2-11.7,13.1-17.2,19.9C800.9,250.4,799.7,253.4,798.1,256.1z M1100.5,254.9c2.6,3,47.4-24.3,49.3-36.5
		c0.5-3-12.8,0.2-24.3,8.6C1112,236.7,1098.8,252.9,1100.5,254.9z"/>
	<path class="st0" d="M567.2,216.9c-25-3.6-32.2-24-29.8-41.9c2.4-17.9,12-31.7,25.2-43.4c21.2-18.9,45.9-30.8,73.8-35.5
		c17.7-3,35.5-6.5,53.4-6.9c27.6-0.6,55.6,0.2,81.4,12.1c20.6,9.5,32.7,25.9,34.2,49c0.7,10.7-2.8,20.5-7.2,30.1
		c-7.3,15.8-18.7,28.5-29.7,41.6c-18.1,21.5-40.3,38.2-63.1,54.2c-25.1,17.6-50.6,34.7-75.9,52.1c-6.3,4.3-12.4,9-19,13
		c-5.5,3.4-11.4,6.3-17.4,8.8c-5.7,2.4-11.6,1.4-17.2-1.2c-4.9-2.3-5.7-6.3-1.5-9.8c3.3-2.8,7.3-4.9,11.1-6.9
		c16.6-8.6,33.4-16.9,49.9-25.6c4.4-2.3,8.4-5.5,12.3-8.6c3.1-2.5,2.6-3.8-1.1-5.1c-1.7-0.6-3.3-1.2-5.1-1.4
		c-6.4-0.9-10.2-4.9-12.9-10.4c-4.6-9.6-6.6-20-6.1-30.4c0.9-16.9,2.6-33.8,4.7-50.6c3.7-28.9,8.1-57.7,12.2-86.6
		c0.7-4.8,0-5.5-4.7-4.4c-24.3,6-45.8,17.3-63.7,34.8c-6.5,6.4-12.7,13.3-18.2,20.6c-6.1,7.9-9.8,17.1-8.3,27.4
		c1.5,9.8,6.4,17.3,15.6,21.6C562.5,214.7,564.8,215.8,567.2,216.9z M669.6,104.4c1,2,1.5,3.2,2.1,4.5c2.9,6.1,4.1,12.4,3,19
		c-4.2,24.1-8.3,48.3-12.7,72.4c-4.8,25.7-8.8,51.5-7.2,77.9c0.6,9.4,2.9,10.9,11.1,6c9-5.3,17.8-10.8,26.5-16.6
		c25.5-17.1,50.1-35.4,71-58.2c13.2-14.4,24.4-30.1,30-49.1c4.4-14.8,3.5-28.6-8-40.3c-7.2-7.3-15.7-12.6-25.7-15
		c-25.8-6.2-51.8-8.2-78.2-4.3C677.5,101.2,673.7,103,669.6,104.4z"/>
	<path class="st0" d="M1189.2,180.1c1.7-4.5,3.2-9.1,5.1-13.5c1.2-2.7,3.7-3.6,6.7-2.8c5.3,1.3,9.9,3.9,13.1,8.2
		c1.1,1.4,1.5,4.5,0.7,6c-2.7,4.9-6,9.5-9.3,14c-1.7,2.4-4.1,2.6-6.7,1.2C1193.7,190.6,1189.9,186.8,1189.2,180.1z"/>
	<path class="st0" d="M418.7,198.1c-1.2,6-3.5,11.5-7.8,15.9c-1.8,1.9-4,1.8-6.1,0.2c-5.2-4-9.1-17.9-6.4-24
		c0.6-1.4,2.3-2.8,3.7-3.2c5-1.6,13.5,2.6,15.6,7.4C418.2,195.6,418.4,196.8,418.7,198.1z"/>
</g>
</svg>
